<?xml version="1.0" encoding="UTF-8"?>
<svg width="602px" height="160px" viewBox="0 0 602 160" version="1.1" xmlns="http://www.w3.org/2000/svg" xmlns:xlink="http://www.w3.org/1999/xlink">
    <title>FLuX Logo</title>
    <g id="Page-1" stroke="none" stroke-width="1" fill="none" fill-rule="evenodd">
        <g id="01---Intro" transform="translate(-665, -456)" fill="#67C6F7" fill-rule="nonzero">
            <g id="FLuX-Logo" transform="translate(665, 456)">
                <path d="M220.243103,0 L220.2288,0.06 L239.800572,0.060681582 L212.224313,131.067883 L261.503067,131.065714 L269.633327,131.055783 C269.858897,125.856369 270.70549,119.792244 272.173105,112.863408 L287.087892,41.6709091 L318.41967,41.6709091 L303.504885,112.863408 C302.074212,119.581726 301.724321,121.281399 301,124.705433 C299.318901,132.652383 310.264823,130.713131 318.41967,130.713131 C336.911143,130.713131 338.5252,132.853561 342.428287,124.705433 C344.75967,119.838411 346.385583,112.863408 348.141943,105.92837 L361.66182,41.6709091 L392.6717,41.6709091 L373.543867,132.817143 L411.704933,132.817143 L457.120989,78.4049383 L425.252705,0.060681582 L464.739333,0.060681582 L482.014732,51.965106 L521.930563,0.060681582 L560.129581,0.060681582 L560.118,0.0742857143 L602,0.074362028 L602,27.0726543 L537.4828,27.0714286 L495.534609,77.1046186 L529.548904,159.783274 L489.418475,159.783274 L470.748167,105.38657 L427.613319,159.783274 L420.932733,159.782857 L420.924171,159.818139 L364.668199,159.818139 L364.6658,159.782857 L338.162985,159.783274 C328.366132,159.927758 321.624076,160 317.936817,160 C312.405931,160 295.97899,159.783274 289.970156,159.783274 C289.194559,159.783274 288.45647,159.775879 287.753781,159.76062 L287.751691,159.818139 L261.504483,159.818139 L261.503067,159.782857 L173.166888,159.783274 L200.789933,28.4057143 L158.2212,28.4059154 L158.219933,28.34 L114.506928,28.3426332 L106.781283,65.0766623 L155.535208,65.0766623 L149.740975,92.816814 L100.98705,92.816814 L86.9306688,159.783274 L56.2640667,159.782857 L56.2559703,159.818139 L0,159.818139 L0,132.819847 L59.7528,132.817143 L87.5744725,0.277401517 L158.219933,0.277142857 L158.2212,0 L220.243103,0 Z" id="Combined-Shape"></path>
            </g>
        </g>
    </g>
</svg>