<?xml version="1.0" encoding="UTF-8"?>
<svg width="602px" height="251px" viewBox="0 0 602 251" version="1.1" xmlns="http://www.w3.org/2000/svg" xmlns:xlink="http://www.w3.org/1999/xlink">
    <title>Group</title>
    <g id="Page-1" stroke="none" stroke-width="1" fill="none" fill-rule="evenodd">
        <g id="Group" fill="#67C6F7" fill-rule="nonzero">
            <g id="FLuX-Logo-Copy">
                <path d="M220.243103,0 L220.2288,0.06 L239.800572,0.060681582 L212.224313,131.067883 L261.503067,131.065714 L269.633327,131.055783 C269.858897,125.856369 270.70549,119.792244 272.173105,112.863408 L287.087892,41.6709091 L318.41967,41.6709091 L303.504885,112.863408 C302.074212,119.581726 301.724321,121.281399 301,124.705433 C299.318901,132.652383 310.264823,130.713131 318.41967,130.713131 C336.911143,130.713131 338.5252,132.853561 342.428287,124.705433 C344.75967,119.838411 346.385583,112.863408 348.141943,105.92837 L361.66182,41.6709091 L392.6717,41.6709091 L373.543867,132.817143 L411.704933,132.817143 L457.120989,78.4049383 L425.252705,0.060681582 L464.739333,0.060681582 L482.014732,51.965106 L521.930563,0.060681582 L560.129581,0.060681582 L560.118,0.0742857143 L602,0.074362028 L602,27.0726543 L537.4828,27.0714286 L495.534609,77.1046186 L529.548904,159.783274 L489.418475,159.783274 L470.748167,105.38657 L427.613319,159.783274 L420.932733,159.782857 L420.924171,159.818139 L364.668199,159.818139 L364.6658,159.782857 L338.162985,159.783274 C328.366132,159.927758 321.624076,160 317.936817,160 C312.405931,160 295.97899,159.783274 289.970156,159.783274 C289.194559,159.783274 288.45647,159.775879 287.753781,159.76062 L287.751691,159.818139 L261.504483,159.818139 L261.503067,159.782857 L173.166888,159.783274 L200.789933,28.4057143 L158.2212,28.4059154 L158.219933,28.34 L114.506928,28.3426332 L106.781283,65.0766623 L155.535208,65.0766623 L149.740975,92.816814 L100.98705,92.816814 L86.9306688,159.783274 L56.2640667,159.782857 L56.2559703,159.818139 L0,159.818139 L0,132.819847 L59.7528,132.817143 L87.5744725,0.277401517 L158.219933,0.277142857 L158.2212,0 L220.243103,0 Z" id="Combined-Shape"></path>
            </g>
            <g id="WebOS" transform="translate(147, 167)">
                <polygon id="Path" points="49.1777344 46.6445312 49.5058594 34.9550781 44.9121094 46.6445312 30.1054688 82 18.375 82 14.0683594 21.5429688 27.4804688 21.5429688 28.0957031 56.1601562 27.7675781 65.7988281 31.5410156 56.3652344 45.7734375 21.5429688 59.1035156 21.5429688 58.8984375 56.1601562 58.6933594 65.7988281 62.5078125 56.5292969 78.0527344 21.5429688 90.890625 21.5429688 61.03125 82 48.9726562 82"></polygon>
                <path d="M106.717734,71.9511719 C107.674766,71.2128906 108.618125,70.1875 109.547813,68.875 L121.483359,68.875 C120.608359,71.5273438 118.653281,74.2207031 115.618125,76.9550781 C110.860313,81.3027344 105.036094,83.4765625 98.1454688,83.4765625 C92.4579688,83.4765625 87.8300391,81.6445312 84.2616797,77.9804688 C80.6933203,74.3164062 79.7841406,68.3554688 81.5341406,60.0976562 C83.1747656,52.359375 86.3944922,46.4257812 91.1933203,42.296875 C95.9921484,38.1679688 101.522422,36.1035156 107.784141,36.1035156 C111.502891,36.1035156 114.708945,36.8007812 117.402305,38.1953125 C120.095664,39.5898438 122.084922,41.7910156 123.370078,44.7988281 C124.573203,47.4511719 125.051719,50.5273438 124.805625,54.0273438 C124.69625,56.078125 124.204063,59.03125 123.329063,62.8867188 L92.7314063,62.8867188 C91.9384375,67.3710938 92.6767188,70.515625 94.94625,72.3203125 C96.3134375,73.4414062 98.1317969,74.0019531 100.401328,74.0019531 C102.807578,74.0019531 104.913047,73.3183594 106.717734,71.9511719 Z M105.733359,45.7421875 C103.026328,45.7421875 100.749961,46.5898438 98.9042578,48.2851562 C97.0585547,49.9804688 95.6435156,52.2773438 94.6591406,55.1757812 L112.829063,55.1757812 C113.293906,52.0859375 112.84957,49.7412109 111.496055,48.1416016 C110.142539,46.5419922 108.221641,45.7421875 105.733359,45.7421875 Z" id="Shape"></path>
                <path d="M149.697188,38.359375 C152.076094,36.9921875 154.8925,36.3085938 158.146406,36.3085938 C164.025313,36.3085938 168.174727,38.4277344 170.594648,42.6660156 C173.01457,46.9042969 173.513594,52.3730469 172.091719,59.0722656 C170.615156,66.0175781 167.750898,71.7734375 163.498945,76.3398438 C159.246992,80.90625 154.181563,83.1894531 148.302656,83.1894531 C144.61125,83.1894531 141.808516,82.4511719 139.894453,80.9746094 C138.746016,80.0996094 137.624922,78.5683594 136.531172,76.3808594 L135.341719,82 L123.898359,82 L136.695234,21.625 L148.343672,21.625 L143.790938,43.1171875 C145.705,41.0390625 147.67375,39.453125 149.697188,38.359375 Z M155.029219,69.9003906 C157.216719,67.4667969 158.734297,64.2675781 159.581953,60.3027344 C160.265547,57.1308594 160.415938,54.5058594 160.033125,52.4277344 C159.294844,48.4902344 156.833906,46.5214844 152.650313,46.5214844 C148.412031,46.5214844 145.089766,48.4492188 142.683516,52.3046875 C141.425703,54.3554688 140.455,57.0078125 139.771406,60.2617188 C138.951094,64.0898438 139.121992,67.2617188 140.284102,69.7773438 C141.446211,72.2929688 143.763594,73.5507812 147.23625,73.5507812 C150.244063,73.5507812 152.841719,72.3339844 155.029219,69.9003906 Z" id="Shape"></path>
                <path d="M232.010625,26.7519531 C236.9325,32.3027344 238.217656,40.6152344 235.866094,51.6894531 C233.541875,62.5449219 228.715703,70.8574219 221.387578,76.6269531 C215.836797,81.3300781 208.741094,83.6816406 200.100469,83.6816406 C191.459844,83.6816406 185.348516,81.3300781 181.766484,76.6269531 C176.871953,70.8574219 175.586797,62.5449219 177.911016,51.6894531 C180.262578,40.6152344 185.08875,32.3027344 192.389531,26.7519531 C197.940313,22.0488281 205.036016,19.6972656 213.676641,19.6972656 C222.317266,19.6972656 228.428594,22.0488281 232.010625,26.7519531 Z M211.420781,30.4023438 C206.416875,30.4023438 202.035039,32.2480469 198.275273,35.9394531 C194.515508,39.6308594 191.911016,44.8808594 190.461797,51.6894531 C189.012578,58.4980469 189.381719,63.7480469 191.569219,67.4394531 C193.756719,71.1308594 197.352422,72.9765625 202.356328,72.9765625 C207.360234,72.9765625 211.728398,71.1308594 215.46082,67.4394531 C219.193242,63.7480469 221.784063,58.4980469 223.233281,51.6894531 C224.655156,44.9082031 224.292852,39.6650391 222.146367,35.9599609 C219.999883,32.2548828 216.424688,30.4023438 211.420781,30.4023438 Z" id="Shape"></path>
                <path d="M264.572109,45.0859375 L274.456875,47.5878906 C278.777187,48.6816406 281.908047,50.1445312 283.849453,51.9765625 C286.857266,54.8203125 287.786953,58.9355469 286.638516,64.3222656 C285.462734,69.8457031 282.372891,74.4326172 277.368984,78.0830078 C272.365078,81.7333984 266.007656,83.5585938 258.296719,83.5585938 C250.421719,83.5585938 244.611172,81.7607422 240.865078,78.1650391 C237.118984,74.5693359 235.915859,69.6269531 237.255703,63.3378906 L249.314297,63.3378906 C249.122891,66.0996094 249.437344,68.1640625 250.257656,69.53125 C251.788906,72.0195312 255.042812,73.2636719 260.019375,73.2636719 C262.999844,73.2636719 265.488125,72.9355469 267.484219,72.2792969 C271.285,71.0214844 273.540859,68.6835938 274.251797,65.265625 C274.689297,63.2695312 274.142422,61.7246094 272.611172,60.6308594 C271.107266,59.5644531 268.564297,58.6210938 264.982266,57.8007812 L258.870937,56.3652344 C252.882656,54.9433594 248.863125,53.3984375 246.812344,51.7304688 C243.339687,48.9414062 242.232266,44.5800781 243.490078,38.6464844 C244.638516,33.2324219 247.564297,28.734375 252.267422,25.1523438 C256.970547,21.5703125 263.136562,19.7792969 270.765469,19.7792969 C277.136562,19.7792969 282.208828,21.4677734 285.982266,24.8447266 C289.755703,28.2216797 291.068203,33.1230469 289.919766,39.5488281 L277.779141,39.5488281 C278.353359,35.9121094 277.327969,33.328125 274.702969,31.796875 C272.952969,30.7851562 270.615078,30.2792969 267.689297,30.2792969 C264.435391,30.2792969 261.69418,30.9355469 259.465664,32.2480469 C257.237148,33.5605469 255.876797,35.3925781 255.384609,37.7441406 C254.919766,39.9042969 255.535,41.5175781 257.230312,42.5839844 C258.296719,43.2949219 260.743984,44.1289062 264.572109,45.0859375 Z" id="Path"></path>
            </g>
        </g>
    </g>
</svg>