<?xml version="1.0" encoding="UTF-8"?>
<svg width="122px" height="203px" viewBox="0 0 122 203" version="1.1" xmlns="http://www.w3.org/2000/svg" xmlns:xlink="http://www.w3.org/1999/xlink">
    <title>Path</title>
    <g id="Page-1" stroke="none" stroke-width="1" fill="none" fill-rule="evenodd">
        <g id="03---Apps-content" transform="translate(-570, -542)" stroke="#BABABA" stroke-width="4.4">
            <path d="M673.037175,545 L609.13931,545 C608.725864,545 608.355047,545.254433 608.206284,545.640189 L572.524396,638.166796 C572.325678,638.682091 572.582315,639.260914 573.097611,639.459632 C573.212406,639.503901 573.334386,639.526607 573.457422,639.526607 L609.688359,639.526607 C610.240643,639.526607 610.688359,639.974322 610.688359,640.526607 C610.688359,640.608298 610.678349,640.689681 610.658552,640.768937 L585.531133,741.369183 C585.397297,741.905006 585.723173,742.447871 586.258996,742.581706 C586.64423,742.677928 587.049899,742.537111 587.29266,742.222897 L688.755044,610.897005 C689.092703,610.459963 689.012137,609.831945 688.575095,609.494287 C688.399998,609.359007 688.184979,609.285621 687.963711,609.285621 L642.117306,609.285621 C641.565022,609.285621 641.117306,608.837905 641.117306,608.285621 C641.117306,608.121619 641.157642,607.960135 641.23476,607.815396 L673.919722,546.470225 C674.179419,545.982807 673.994816,545.377151 673.507399,545.117453 C673.36266,545.040336 673.201176,545 673.037175,545 Z" id="Path"></path>
        </g>
    </g>
</svg>