<?xml version="1.0" encoding="UTF-8"?>
<svg width="169px" height="169px" viewBox="0 0 169 169" version="1.1" xmlns="http://www.w3.org/2000/svg" xmlns:xlink="http://www.w3.org/1999/xlink">
    <title>Mail</title>
    <g id="Page-1" stroke="none" stroke-width="1" fill="none" fill-rule="evenodd">
        <g id="03---Apps-content-2" transform="translate(-548, -125)">
            <g id="Mail" transform="translate(550, 126)">
                <path d="M147.435465,55.6197694 L152.527193,10.1715286 C152.773152,7.97612449 151.192814,5.99700869 148.99741,5.75104977 C148.918172,5.74217243 148.838686,5.73566631 148.759059,5.73154014 L41.7822894,0.188154482 C39.7233455,0.0814629035 37.9205894,1.55719472 37.6184722,3.59664526 L30.7055371,50.2626154 C30.5202942,51.5131031 30.9370697,52.7775638 31.8295658,53.6728208 L80.0819543,102.074474 C81.4737445,103.47057 83.6751759,103.644495 85.2689292,102.484274 L145.814517,58.4082768 C146.722248,57.7474665 147.310457,56.7355736 147.435465,55.6197694 Z" id="Path" stroke="#BABABA" fill="#FFFFFF"></path>
                <g id="10101-01101" transform="translate(56, 6)" fill="#BABABA" fill-rule="nonzero">
                    <path d="M10.0341797,7.0078125 C10.1969401,6.69042969 10.2945964,6.45442708 10.3271484,6.29980469 L13.2202148,6.29980469 L9.46044922,24 L5.89599609,24 L8.48388672,11.7929688 L4.32128906,11.7929688 L4.82177734,9.42480469 C5.9366862,9.37597656 6.72200521,9.30273438 7.17773438,9.20507812 C7.91015625,9.05045573 8.54492188,8.74121094 9.08203125,8.27734375 C9.45638021,7.95996094 9.77376302,7.53678385 10.0341797,7.0078125 Z" id="Path"></path>
                    <path d="M29.5233281,8.55810547 C30.0929896,10.1450195 30.0685755,12.3992513 29.4500859,15.3208008 C28.8234583,18.2423503 27.8896204,20.492513 26.6485723,22.0712891 C25.4075241,23.6500651 23.6598841,24.4394531 21.4056523,24.4394531 C19.1514206,24.4394531 17.7374395,23.6500651 17.163709,22.0712891 C16.5899785,20.492513 16.6164271,18.2423503 17.2430547,15.3208008 C17.8615443,12.3992513 18.7933477,10.1450195 20.0384648,8.55810547 C21.283582,6.97119141 23.0332565,6.17773438 25.2874883,6.17773438 C27.5417201,6.17773438 28.9536667,6.97119141 29.5233281,8.55810547 Z M25.8612188,15.3208008 C26.3088099,13.1886393 26.4817428,11.6098633 26.3800176,10.5844727 C26.2782923,9.55908203 25.7106654,9.04638672 24.6771367,9.04638672 C23.6436081,9.04638672 22.850151,9.55908203 22.2967656,10.5844727 C21.7433802,11.6098633 21.2428919,13.1886393 20.7953008,15.3208008 C20.3558477,17.355306 20.1890182,18.9117025 20.2948125,19.9899902 C20.4006068,21.068278 20.9702682,21.6074219 22.0037969,21.6074219 C23.0373255,21.6074219 23.828748,21.068278 24.3780645,19.9899902 C24.9273809,18.9117025 25.4217656,17.355306 25.8612188,15.3208008 Z" id="Shape"></path>
                    <path d="M39.2712656,7.0078125 C39.434026,6.69042969 39.5316823,6.45442708 39.5642344,6.29980469 L42.4573008,6.29980469 L38.6975352,24 L35.133082,24 L37.7209727,11.7929688 L33.558375,11.7929688 L34.0588633,9.42480469 C35.1737721,9.37597656 35.9590911,9.30273438 36.4148203,9.20507812 C37.1472422,9.05045573 37.7820078,8.74121094 38.3191172,8.27734375 C38.6934661,7.95996094 39.010849,7.53678385 39.2712656,7.0078125 Z" id="Path"></path>
                    <path d="M58.7604141,8.55810547 C59.3300755,10.1450195 59.3056615,12.3992513 58.6871719,15.3208008 C58.0605443,18.2423503 57.1267064,20.492513 55.8856582,22.0712891 C54.64461,23.6500651 52.8969701,24.4394531 50.6427383,24.4394531 C48.3885065,24.4394531 46.9745254,23.6500651 46.4007949,22.0712891 C45.8270645,20.492513 45.853513,18.2423503 46.4801406,15.3208008 C47.0986302,12.3992513 48.0304336,10.1450195 49.2755508,8.55810547 C50.520668,6.97119141 52.2703424,6.17773438 54.5245742,6.17773438 C56.778806,6.17773438 58.1907526,6.97119141 58.7604141,8.55810547 Z M55.0983047,15.3208008 C55.5458958,13.1886393 55.7188288,11.6098633 55.6171035,10.5844727 C55.5153783,9.55908203 54.9477513,9.04638672 53.9142227,9.04638672 C52.880694,9.04638672 52.087237,9.55908203 51.5338516,10.5844727 C50.9804661,11.6098633 50.4799779,13.1886393 50.0323867,15.3208008 C49.5929336,17.355306 49.4261042,18.9117025 49.5318984,19.9899902 C49.6376927,21.068278 50.2073542,21.6074219 51.2408828,21.6074219 C52.2744115,21.6074219 53.065834,21.068278 53.6151504,19.9899902 C54.1644668,18.9117025 54.6588516,17.355306 55.0983047,15.3208008 Z" id="Shape"></path>
                    <path d="M68.5083516,7.0078125 C68.671112,6.69042969 68.7687682,6.45442708 68.8013203,6.29980469 L71.6943867,6.29980469 L67.9346211,24 L64.370168,24 L66.9580586,11.7929688 L62.7954609,11.7929688 L63.2959492,9.42480469 C64.4108581,9.37597656 65.1961771,9.30273438 65.6519062,9.20507812 C66.3843281,9.05045573 67.0190937,8.74121094 67.5562031,8.27734375 C67.9305521,7.95996094 68.2479349,7.53678385 68.5083516,7.0078125 Z" id="Path"></path>
                    <path d="M14.9047852,38.5581055 C15.4744466,40.1450195 15.4500326,42.3992513 14.831543,45.3208008 C14.2049154,48.2423503 13.2710775,50.492513 12.0300293,52.0712891 C10.7889811,53.6500651 9.04134115,54.4394531 6.78710938,54.4394531 C4.5328776,54.4394531 3.11889648,53.6500651 2.54516602,52.0712891 C1.97143555,50.492513 1.99788411,48.2423503 2.62451172,45.3208008 C3.2430013,42.3992513 4.17480469,40.1450195 5.41992188,38.5581055 C6.66503906,36.9711914 8.41471354,36.1777344 10.6689453,36.1777344 C12.9231771,36.1777344 14.3351237,36.9711914 14.9047852,38.5581055 Z M11.2426758,45.3208008 C11.6902669,43.1886393 11.8631999,41.6098633 11.7614746,40.5844727 C11.6597493,39.559082 11.0921224,39.0463867 10.0585938,39.0463867 C9.0250651,39.0463867 8.23160807,39.559082 7.67822266,40.5844727 C7.12483724,41.6098633 6.62434896,43.1886393 6.17675781,45.3208008 C5.73730469,47.355306 5.57047526,48.9117025 5.67626953,49.9899902 C5.7820638,51.068278 6.35172526,51.6074219 7.38525391,51.6074219 C8.41878255,51.6074219 9.21020508,51.068278 9.75952148,49.9899902 C10.3088379,48.9117025 10.8032227,47.355306 11.2426758,45.3208008 Z" id="Shape"></path>
                    <path d="M24.6527227,37.0078125 C24.8154831,36.6904297 24.9131393,36.4544271 24.9456914,36.2998047 L27.8387578,36.2998047 L24.0789922,54 L20.5145391,54 L23.1024297,41.7929688 L18.939832,41.7929688 L19.4403203,39.4248047 C20.5552292,39.3759766 21.3405482,39.3027344 21.7962773,39.2050781 C22.5286992,39.0504557 23.1634648,38.7412109 23.7005742,38.2773438 C24.0749232,37.9599609 24.392306,37.5367839 24.6527227,37.0078125 Z" id="Path"></path>
                    <path d="M37.9040781,37.0078125 C38.0668385,36.6904297 38.1644948,36.4544271 38.1970469,36.2998047 L41.0901133,36.2998047 L37.3303477,54 L33.7658945,54 L36.3537852,41.7929688 L32.1911875,41.7929688 L32.6916758,39.4248047 C33.8065846,39.3759766 34.5919036,39.3027344 35.0476328,39.2050781 C35.7800547,39.0504557 36.4148203,38.7412109 36.9519297,38.2773438 C37.3262786,37.9599609 37.6436615,37.5367839 37.9040781,37.0078125 Z" id="Path"></path>
                    <path d="M57.3932266,38.5581055 C57.962888,40.1450195 57.938474,42.3992513 57.3199844,45.3208008 C56.6933568,48.2423503 55.7595189,50.492513 54.5184707,52.0712891 C53.2774225,53.6500651 51.5297826,54.4394531 49.2755508,54.4394531 C47.021319,54.4394531 45.6073379,53.6500651 45.0336074,52.0712891 C44.459877,50.492513 44.4863255,48.2423503 45.1129531,45.3208008 C45.7314427,42.3992513 46.6632461,40.1450195 47.9083633,38.5581055 C49.1534805,36.9711914 50.9031549,36.1777344 53.1573867,36.1777344 C55.4116185,36.1777344 56.8235651,36.9711914 57.3932266,38.5581055 Z M53.7311172,45.3208008 C54.1787083,43.1886393 54.3516413,41.6098633 54.249916,40.5844727 C54.1481908,39.559082 53.5805638,39.0463867 52.5470352,39.0463867 C51.5135065,39.0463867 50.7200495,39.559082 50.1666641,40.5844727 C49.6132786,41.6098633 49.1127904,43.1886393 48.6651992,45.3208008 C48.2257461,47.355306 48.0589167,48.9117025 48.1647109,49.9899902 C48.2705052,51.068278 48.8401667,51.6074219 49.8736953,51.6074219 C50.907224,51.6074219 51.6986465,51.068278 52.2479629,49.9899902 C52.7972793,48.9117025 53.2916641,47.355306 53.7311172,45.3208008 Z" id="Shape"></path>
                    <path d="M67.1411641,37.0078125 C67.3039245,36.6904297 67.4015807,36.4544271 67.4341328,36.2998047 L70.3271992,36.2998047 L66.5674336,54 L63.0029805,54 L65.5908711,41.7929688 L61.4282734,41.7929688 L61.9287617,39.4248047 C63.0436706,39.3759766 63.8289896,39.3027344 64.2847187,39.2050781 C65.0171406,39.0504557 65.6519062,38.7412109 66.1890156,38.2773438 C66.5633646,37.9599609 66.8807474,37.5367839 67.1411641,37.0078125 Z" id="Path"></path>
                </g>
                <path d="M70.2559754,159.081285 L141.367839,164.926167 C141.878322,164.968125 142.337979,164.617577 142.432559,164.11418 L164.5305,46.4988902 C164.632481,45.9561026 164.275137,45.4334146 163.732349,45.3314339 C163.459421,45.2801553 163.17746,45.3446791 162.953995,45.5095521 L83.686715,103.993338 C83.2911376,104.285197 82.7420966,104.246254 82.3916755,103.901481 L22.8306029,45.3004667 C22.4369187,44.9131281 21.8037746,44.9182724 21.416436,45.3119567 C21.2794993,45.4511368 21.1863026,45.6273602 21.148344,45.8188855 L0.215457337,151.438653 C0.108087882,151.980401 0.460220781,152.506614 1.00196818,152.613984 C1.03552796,152.620635 1.06940696,152.625559 1.10347153,152.628738 L70.2449857,159.080321 C70.2486471,159.080662 70.2523104,159.080984 70.2559754,159.081285 Z" id="Path" stroke="#BABABA" stroke-width="4.4"></path>
            </g>
        </g>
    </g>
</svg>