<?xml version="1.0" encoding="UTF-8"?>
<svg width="139px" height="156px" viewBox="0 0 139 156" version="1.1" xmlns="http://www.w3.org/2000/svg" xmlns:xlink="http://www.w3.org/1999/xlink">
    <title>Group</title>
    <g id="Page-1" stroke="none" stroke-width="1" fill="none" fill-rule="evenodd">
        <g id="03---Apps-content" transform="translate(-927, -852)" stroke="#BABABA">
            <g id="Group" transform="translate(927, 854)">
                <path d="M24.1873225,10.9576655 L2.42531285,136.957665 C1.29736264,143.488392 5.67717794,149.696976 12.2079041,150.824926 C12.8824428,150.941428 13.5657131,151 14.2502386,151 L102.590249,151 C108.282786,151 113.191982,147.000515 114.342572,141.42547 L135.042852,41.1228319 C135.660149,38.1316947 135.113699,35.017734 133.514854,32.415494 C130.415552,27.3727101 128.178344,23.9406163 126.801758,22.1201172 C125.250488,20.0686035 113.858671,1 112.36656,1 C86.9151226,1 61.4636854,1 36.0122482,1 C30.1728383,1 25.1811582,5.20344977 24.1873225,10.9576655 Z" id="Path" stroke-width="4.4"></path>
                <path d="M111.723129,1.85177789 L106.212701,22.1213273 C106.088717,22.5773915 106.300948,23.0579866 106.721532,23.2735686 L134.431382,37.4770152 C134.922863,37.7289373 135.52551,37.5347365 135.777432,37.0432554 C135.940166,36.7257734 135.921437,36.3456401 135.728281,36.0456931 L113.52886,1.57269716 C113.229844,1.10836136 112.611025,0.974343389 112.146689,1.27335963 C111.938867,1.40719016 111.787975,1.61324942 111.723129,1.85177789 Z" id="Path" stroke-width="4.4"></path>
                <line x1="40.1204165" y1="26.5" x2="89.8619768" y2="26.5" id="Line" stroke-width="4" stroke-linecap="square"></line>
                <line x1="36.8556492" y1="47.5" x2="105.9375" y2="47.5" id="Line-2" stroke-width="4" stroke-linecap="square"></line>
                <line x1="33.4893352" y1="68.5" x2="105.36184" y2="68.5" id="Line-2-Copy" stroke-width="4" stroke-linecap="square"></line>
                <line x1="28.6303893" y1="89.5" x2="100.502894" y2="89.5" id="Line-2-Copy" stroke-width="4" stroke-linecap="square"></line>
                <line x1="27.4135004" y1="110.5" x2="99.2860052" y2="110.5" id="Line-2-Copy" stroke-width="4" stroke-linecap="square"></line>
                <line x1="21.9375" y1="131.5" x2="93.8100048" y2="131.5" id="Line-2-Copy" stroke-width="4" stroke-linecap="square"></line>
            </g>
        </g>
    </g>
</svg>