<?xml version="1.0" encoding="UTF-8"?>
<svg width="116px" height="224px" viewBox="0 0 116 224" version="1.1" xmlns="http://www.w3.org/2000/svg" xmlns:xlink="http://www.w3.org/1999/xlink">
    <title>Pixelmator</title>
    <g id="Page-1" stroke="none" stroke-width="1" fill="none" fill-rule="evenodd">
        <g id="03---Apps-content-2" transform="translate(-572, -728)" stroke="#BABABA" stroke-width="4.4">
            <path d="M575.772451,948 C584.470836,942.37722 589.981392,938.1833 592.304117,935.418238 C597.384343,929.370542 596.321391,922.805481 597.092585,920.112695 C598.372548,915.643436 606.653009,900.270115 621.93397,873.992734 C660.451752,804.259844 681.45724,757.945815 684.950434,735.050646 C685.457524,731.727063 681.918835,732.434287 681.393406,731.36602 C679.330678,727.172217 659.510866,759.017362 621.93397,826.901457 L604.82289,865.186525 L587.71181,913.266672 C584.880133,914.173927 583.06605,914.972142 582.269562,915.661317 C578.208731,919.175025 577.126024,923.209211 576.091088,926.219992 C574.751664,930.11657 574.645452,937.376572 575.772451,948 Z" id="Pixelmator"></path>
        </g>
    </g>
</svg>