<?xml version="1.0" encoding="UTF-8"?>
<svg width="169px" height="169px" viewBox="0 0 169 169" version="1.1" xmlns="http://www.w3.org/2000/svg" xmlns:xlink="http://www.w3.org/1999/xlink">
    <title>worldmap</title>
    <defs>
        <circle id="path-1" cx="84.5" cy="84.5" r="84.5"></circle>
    </defs>
    <g id="Page-1" stroke="none" stroke-width="1" fill="none" fill-rule="evenodd" opacity="0.900000036">
        <g id="03---Apps-content" transform="translate(-921, -247)">
            <g id="worldmap" transform="translate(921, 247)">
                <mask id="mask-2" fill="white">
                    <use xlink:href="#path-1"></use>
                </mask>
                <circle stroke="#BABABA" stroke-width="4.4" cx="84.5" cy="84.5" r="82.3"></circle>
                <g mask="url(#mask-2)" fill="#C1C1C1" fill-rule="nonzero">
                    <g transform="translate(-31, 35)">
                        <path d="M176.415896,52.4238022 C176.794216,53.67131 177.143435,54.8607941 177.463552,56.0502783 C177.579959,56.4564436 177.870974,57.0076679 177.725466,57.2687742 C177.347146,57.8780222 177.783669,58.4872702 177.492654,59.0675063 C177.376248,59.3286126 177.376248,59.6767543 177.550857,59.9378606 C177.754568,60.0539078 177.870974,59.8508251 178.016482,59.9088488 C178.394802,60.024896 179.558865,61.9396753 179.442459,62.3458407 C179.267849,62.9260768 179.500662,63.3322421 179.820779,63.7674193 C180.431912,64.6377735 181.537771,64.869868 182.148904,65.7402222 C182.148904,65.7402222 182.236209,65.7112104 182.294412,65.6821986 C182.381717,65.3340569 182.323513,65.014927 182.148904,64.6957971 C181.799685,64.115561 181.50867,63.5353248 181.595974,62.8100296 C181.625076,62.5779351 181.537771,62.3168288 181.363162,62.1717698 C180.868435,61.6785691 180.548318,61.0403093 179.937185,60.6631558 C179.413357,60.3150141 178.831326,60.024896 178.889529,59.2125654 C178.91863,58.9224473 178.598513,58.7193646 178.394802,58.516282 C178.16199,58.3131993 178.103787,58.052093 178.191091,57.7329631 C178.365701,57.0076679 178.71492,56.3113845 178.656716,55.5570775 C178.656716,55.3830067 178.773123,55.2089358 179.005935,55.2669594 C179.180545,55.2959712 179.326052,55.4120185 179.267849,55.6441129 C179.238748,55.8181838 179.122341,55.9632428 179.296951,56.1953373 C179.908084,55.8762074 180.286404,56.3113845 180.606521,56.7465617 C180.897537,57.152727 181.421365,57.3848214 181.566873,57.907034 C182.410818,57.8490104 182.236209,58.4292465 182.236209,58.9224473 C182.236209,59.0384945 182.207107,59.2125654 182.410818,59.270589 C182.672732,59.0675063 182.963748,58.8644237 183.225662,58.6323292 C183.429373,58.4582583 183.603982,58.2551757 183.691287,58.0230812 C183.778592,57.8199986 184.011404,57.7619749 184.186014,57.6749395 C185.350076,57.0656915 185.582889,56.4854554 185.350076,55.2089358 C185.175467,54.1935225 184.564334,53.4392155 183.865896,52.7139203 C183.342068,52.1626959 182.760037,51.6694952 182.352615,51.0312354 C182.178006,50.7701292 182.061599,50.5380347 182.148904,50.2189048 C182.352615,49.5226214 182.934646,49.1744797 183.429373,48.7102908 C183.807693,48.3621491 184.244217,48.5652317 184.651639,48.5942435 C184.826248,49.4936096 185.000857,49.7257041 185.379178,49.4645978 C185.524686,49.2615151 185.350076,48.971397 185.524686,48.7393026 C185.961209,48.681279 186.281326,48.1880782 186.776053,48.4781963 C186.834256,48.5072081 186.979764,48.4201727 187.067068,48.3331373 C187.270779,48.1300546 187.561795,48.072031 187.794608,47.9269719 C188.522147,47.462783 189.33699,47.2597003 190.006326,46.563417 C191.053983,45.4609682 191.490506,44.1554369 191.810623,42.8208937 C191.92703,42.2986811 192.159842,41.7474568 191.956131,41.1382088 C191.694217,41.254256 191.490506,41.6023977 191.170389,41.254256 C191.228592,40.9931498 191.490506,40.7900671 191.461405,40.4709372 C191.344998,40.2968664 190.937576,40.3839018 191.053983,40.1227955 C191.228592,39.7166302 190.937576,39.600583 190.762967,39.3975003 C190.384647,39.0203468 190.093631,38.6141815 189.773514,38.1790044 C189.453397,37.772839 188.871365,37.6858036 188.551248,37.2216147 C189.075076,36.5543431 189.307889,35.654977 190.326444,35.509918 C190.151834,34.9877054 189.773514,35.1327645 189.5116,35.1327645 C189.220584,35.1327645 188.95867,34.9877054 188.667654,35.1037527 C188.376639,35.2197999 188.202029,35.5679416 187.765506,35.4518944 C187.678201,34.7265992 186.863358,34.8136346 186.252225,34.2624102 C187.183475,33.8852567 187.590897,33.1019379 188.260233,32.4636781 C188.813162,33.0149025 188.289334,33.8272331 188.95867,34.2624102 C189.540701,33.5661268 190.210037,33.0729261 191.141287,33.7692095 C191.286795,34.1173512 191.112186,34.5235165 191.286795,34.8716582 C191.781522,35.1617763 192.363553,35.1327645 192.887381,35.4228826 C192.85828,35.654977 192.625467,35.9450951 192.945584,36.1771896 C193.353006,36.4963195 193.440311,36.873473 193.323905,37.3956855 C193.207498,37.8308627 193.556717,38.0629571 194.022342,37.9178981 C194.604374,37.7438272 195.186405,37.5407446 195.506522,36.9605084 C195.419217,36.7574258 195.302811,36.5833549 195.27371,36.3802722 C195.128202,35.5389298 194.575272,35.0167173 193.876834,34.6105519 C193.440311,34.3494457 192.974686,34.0593276 192.596366,33.5951387 C193.294803,33.1599615 193.556717,32.5217017 193.498514,31.7093711 C193.469413,31.3902412 193.702225,31.1001231 194.051444,30.8680287 C194.517069,30.5779106 194.72078,31.1291349 195.128202,31.0711113 C195.47742,30.8390169 195.943046,30.6939578 196.088553,30.2007571 C196.670585,28.2279541 197.078007,26.284163 195.768436,24.4274072 C195.593827,24.1953128 195.535624,23.9051947 195.390116,23.6440884 C194.982694,22.8607696 194.458866,22.2225098 193.556717,21.9323917 C192.800077,21.6712854 192.741873,21.6422736 192.159842,22.2225098 C191.694217,22.0194271 191.636014,21.4682028 191.286795,21.1200611 C191.257694,21.3521556 191.257694,21.5262264 191.228592,21.7293091 C190.937576,21.2941319 190.297342,21.5262264 189.948123,21.0620375 C190.588358,20.4527895 190.82117,19.7274943 190.879373,18.8861519 C190.937576,18.2188803 191.257694,18.0448094 191.92703,17.8997504 C193.2366,17.6386441 194.54617,17.8417268 195.826639,17.7546913 C195.943046,17.7546913 196.088553,17.7256795 196.175858,17.7837031 C196.9616,18.3929511 197.718241,18.0448094 198.533085,17.8417268 C198.387577,17.4065496 197.921952,17.4355614 197.718241,17.1164315 C197.834647,16.7102662 197.951053,16.2750891 198.06746,15.9269474 C199.260624,15.3757231 199.784452,16.3621245 200.48289,16.8843371 C200.832108,16.6232308 201.064921,16.3621245 201.268632,16.0720065 C201.210429,15.839912 200.890311,15.7238648 201.094022,15.4627585 C201.152225,15.4337467 201.23953,15.3757231 201.268632,15.4047349 C201.821561,15.7238648 202.054374,16.3621245 201.879765,16.9133489 C201.763358,17.2614906 201.588749,17.6386441 201.588749,17.9867858 C201.559647,18.4799865 201.326835,18.7991164 200.890311,19.0312109 C201.23953,19.5244116 201.094022,20.1916832 201.588749,20.5978485 C202.781913,21.5262264 203.887773,22.5706515 204.935429,23.6150766 C205.197343,23.8761829 205.488359,24.1082773 205.89578,24.2823482 C206.041288,23.8761829 206.186796,23.4990294 205.953984,23.1798995 C205.604765,22.7447224 206.012187,22.5996633 206.215898,22.3965807 C205.633866,21.6422736 205.662968,21.5552382 206.303202,21.4101792 C206.041288,21.0330257 205.546562,20.7719194 205.575663,20.220695 C205.779374,20.2497068 205.953984,20.3367423 205.983085,20.0466242 C205.633866,19.7565061 205.022734,19.7855179 204.848124,19.3503408 C204.673515,18.85714 204.353398,18.7410928 203.945976,18.7410928 C203.596757,18.7410928 203.393046,18.4799865 203.480351,18.2769039 C203.625858,17.8997504 203.247538,17.6966677 203.247538,17.4065496 C204.149687,16.9133489 204.149687,16.9133489 204.819023,17.348526 C205.13914,17.2324788 205.313749,16.739278 205.779374,16.8843371 C206.157695,17.0003843 206.506913,17.1454434 206.856132,17.2614906 C207.088945,16.5652072 207.496366,16.0720065 207.991093,15.6078175 C208.544023,15.085605 209.213359,15.4627585 209.940898,15.3757231 C209.096952,14.6794397 208.107499,14.5343806 207.350859,13.9541444 C207.729179,13.7510618 208.049296,13.5189673 207.991093,12.9387312 C208.718632,13.2288492 209.475273,13.0257666 210.057304,13.4609437 C210.755742,13.9831563 211.541484,14.0411799 212.356328,14.0411799 C212.443632,14.0411799 212.472734,13.9831563 212.443632,13.867109 C212.530937,13.5769909 212.065312,13.5769909 212.03621,13.3158847 C212.094414,13.1708256 212.385429,13.1708256 212.21082,12.7356485 C209.969999,12.1554123 207.525468,11.8072706 205.197343,11.0819754 C202.840116,10.3276684 200.395585,10.1245858 197.776444,9.83446767 C198.06746,10.1826094 198.242069,10.385692 198.387577,10.5597629 L198.329374,10.6177865 C196.408671,10.3566802 194.487967,10.1245858 192.538163,10.240633 C192.509061,10.240633 192.479959,10.240633 192.450858,10.240633 C192.276248,10.240633 192.101639,10.1826094 191.985233,10.0375503 C191.606912,9.48632597 190.99578,9.51533778 190.44285,9.37027874 C189.569803,9.16719608 188.725858,9.2252197 187.852811,9.2252197 C186.71785,9.2252197 185.61199,9.10917246 184.535232,8.67399534 C184.215115,8.55794811 183.865896,8.5289363 183.516678,8.47091268 C182.527224,8.29684183 181.479568,8.41288906 180.490115,8.1807946 C180.082693,8.09375917 179.617068,8.03573556 179.151443,8.35486545 C179.326052,8.47091268 179.442459,8.55794811 179.558865,8.64498353 C179.675271,8.73201896 179.820779,8.79004257 179.704373,9.02213704 C178.569412,8.93510161 177.434451,8.84806619 176.29949,8.79004257 C176.153982,8.99312523 176.386794,9.31225512 176.037576,9.54434959 C175.542849,9.16719608 174.757107,9.16719608 174.320583,8.70300715 C173.651247,7.97771194 172.807302,7.80364109 171.905154,7.65858205 C171.352224,7.57154662 170.799294,7.28142854 170.246364,7.4845112 C170.071755,7.71660567 170.420974,7.77462928 170.362771,7.91968832 C169.635232,7.91968832 168.820388,8.12277098 168.209255,7.86166471 C167.481716,7.57154662 166.81238,7.60055843 166.113942,7.60055843 C165.677419,7.60055843 165.269997,7.57154662 164.920778,7.25241673 C164.455153,6.84625142 164.105934,6.84625142 163.640309,7.31044035 C163.232887,7.68759386 162.825466,7.65858205 162.272536,7.60055843 C162.767262,7.31044035 163.174684,7.04933408 163.611208,6.81723961 C163.785817,6.70119238 163.960427,6.58514514 163.873122,6.32403887 C163.814919,6.12095621 163.698512,5.91787355 163.4657,5.91787355 C162.854567,5.88886174 162.301637,5.59874366 161.690505,5.54072004 C160.846559,5.48269643 159.886208,5.88886174 159.216872,5.0475193 C158.576637,5.0185075 157.936403,4.93147207 157.32527,5.10554292 C157.005153,5.19257835 156.597731,5.19257835 156.597731,5.7438027 C156.597731,5.91787355 156.161207,6.06293259 155.84109,6.06293259 C155.404567,6.03392079 154.968043,6.00490898 154.53152,6.06293259 C153.221949,6.17897983 151.970582,6.38206248 150.748316,6.81723961 C150.748316,7.10735769 151.18484,7.07834588 151.097535,7.42648758 C150.311793,7.60055843 149.467848,7.36846397 148.507496,7.54253482 C149.118629,8.06474737 149.526051,8.58695991 150.340895,8.55794811 C149.787965,8.84806619 149.787965,8.877078 149.351441,8.64498353 C148.653004,8.29684183 147.954566,8.1807946 147.256129,8.49992449 C147.256129,9.05114885 147.692652,8.99312523 147.983668,9.10917246 C147.779957,9.39929055 147.605347,9.39929055 147.343433,9.31225512 C146.877808,9.13818427 146.732301,8.73201896 146.557691,8.32585364 C146.412183,8.03573556 146.324879,7.65858205 145.830152,7.89067652 C145.888355,8.1807946 146.237574,8.26783002 146.295777,8.5289363 C146.295777,8.79004257 145.859254,8.84806619 146.004761,9.2252197 C146.237574,9.42830235 146.703199,9.48632597 146.761402,9.92150309 C146.819605,10.385692 147.023316,10.6177865 147.45984,10.7918573 C147.983668,11.0239518 148.129176,11.604188 147.867262,12.0683769 C147.576246,12.5905895 147.343433,12.6196013 146.703199,12.3004714 C147.401637,11.5751762 147.430738,11.3430817 146.674097,10.7048219 C146.121168,10.2116212 146.004761,9.39929055 145.364527,9.02213704 C145.306324,8.99312523 145.277222,8.84806619 145.306324,8.79004257 C145.510035,8.20980641 145.102613,8.1807946 144.724293,8.09375917 C144.578785,8.06474737 144.433277,8.00672375 144.316871,7.94870013 C143.647535,7.57154662 143.443824,7.62957024 143.240113,8.32585364 C143.123707,8.70300715 143.094605,9.08016065 142.803589,9.2252197 C143.065503,10.0665621 143.618433,10.5307511 144.404175,10.7628455 C144.636988,10.849881 144.636988,11.0819754 144.404175,11.3430817 C142.803589,10.2986566 140.795581,10.5307511 139.107691,9.71842044 C139.049488,9.68940863 138.933081,9.71842044 138.845777,9.71842044 C138.758472,9.74743225 138.700269,9.80545586 138.72937,9.9505149 C138.90398,10.0665621 139.107691,10.1826094 139.311402,10.2986566 C138.642066,11.0529636 137.594409,10.7338337 136.895972,11.2560463 C136.634058,11.139999 136.808667,10.9079046 136.604956,10.7628455 C136.546753,10.7628455 136.459448,10.7338337 136.372144,10.7338337 C135.382691,11.0529636 134.305933,11.2560463 133.461987,11.9813415 C133.14187,12.2424478 132.705347,12.1554123 132.58894,11.8362824 C132.676245,11.6912234 132.792651,11.5751762 132.879956,11.4301171 C132.501636,10.6467983 131.8323,10.9079046 131.162964,10.9079046 C131.570386,11.4301171 131.599487,12.0393651 132.006909,12.503554 C131.570386,12.7066367 131.337573,12.358495 130.988354,12.358495 C130.639136,12.6486131 130.231714,12.967743 129.79519,13.0547784 C129.678784,13.2868729 130.028003,13.4609437 129.736987,13.6640264 C129.184057,13.6930382 128.572925,13.0547784 127.990893,13.6060027 C128.194604,13.9831563 128.689331,13.8090854 128.893042,14.3603098 C128.078198,14.1572271 127.408862,13.9831563 126.914135,13.4319319 C126.855932,13.3739083 126.768628,13.257861 126.797729,13.1998374 C127.117846,12.7066367 126.477612,12.7066367 126.361206,12.4165186 C126.739526,12.3875068 127.059643,12.4455304 127.37976,12.503554 C128.194604,12.5905895 129.009448,12.8226839 129.824292,12.3875068 C130.202612,12.1554123 130.406323,11.9233179 130.144409,11.4301171 C128.1073,11.0529636 126.128393,10.385692 124.062182,9.92150309 C124.062182,9.83446767 124.091284,9.68940863 124.120385,9.54434959 C123.392846,9.37027874 122.72351,8.93510161 121.96687,9.45731416 C121.821362,9.54434959 121.559448,9.51533778 121.384838,9.45731416 C120.773705,9.2252197 120.191674,9.45731416 119.609643,9.5733614 C118.154565,9.86347948 116.75769,10.3276684 115.419018,10.9369164 C115.389916,10.9659282 115.360814,11.0239518 115.331713,11.0819754 C115.389916,11.3140699 115.739135,11.1109872 115.768236,11.4011053 C115.564525,12.1264005 114.778783,12.3004714 114.34226,12.8516957 C113.905736,13.4029201 113.993041,14.3022861 113.2364,14.6504278 C112.945385,14.5053688 112.654369,14.4183334 112.276049,14.5053688 C111.403002,14.7084515 110.733666,15.1436286 110.326244,15.9559592 C109.88972,16.7973017 110.762767,17.4645732 110.617259,18.2769039 C110.617259,18.3059157 110.646361,18.3349275 110.675463,18.3349275 C111.053783,18.7991164 112.043236,18.9441755 112.537963,18.567022 C112.916283,18.2769039 113.265502,18.0448094 113.78933,17.8707386 C113.847533,18.6830692 114.575072,19.1472581 114.72058,19.8435415 C114.516869,20.3077305 114.138549,20.3367423 113.760228,20.3657541 C113.731127,20.4237777 113.614721,20.3077305 113.672924,20.2787187 C113.672924,19.8145297 113.41101,19.4373762 113.381908,19.0021991 C112.799877,19.1182463 112.363353,19.321329 112.072338,19.8435415 C111.664916,20.5978485 112.30515,21.1490729 112.450658,21.7583209 C112.334252,21.9323917 112.217846,22.048439 112.043236,22.0774508 C111.664916,22.1354744 111.286595,22.1354744 110.937377,22.2515216 C110.326244,22.3965807 109.627806,22.4836161 109.686009,23.3829821 C109.686009,23.6440884 109.482298,23.7891475 109.278588,23.9051947 C108.812963,24.2243246 108.318236,24.3983954 107.765306,24.5144427 C107.386986,25.6168914 106.804955,25.819974 105.524486,25.2687497 C105.553587,25.5878796 105.815501,25.8779976 105.61179,26.1681157 C104.913353,26.0810803 104.185814,25.7909622 103.574681,26.429222 C103.836595,26.8934109 104.30222,26.9514346 104.68054,27.1255054 C105.61179,27.5896943 106.077415,28.9822611 105.582689,30.055698 C105.466283,30.2877925 105.23347,30.4328515 104.942454,30.4618634 C103.982103,30.5488988 103.021751,30.4618634 102.119603,30.3168043 C101.421165,30.2007571 100.95554,30.2587807 100.431712,30.6359342 C100.431712,30.7519814 100.40261,30.8390169 100.431712,30.8970405 C100.693626,31.7964065 100.57722,32.6667608 100.111595,33.4790914 C99.9951886,33.6821741 99.9078839,34.001304 99.9951886,34.146363 C100.286204,34.6105519 100.1989,35.1327645 100.315306,35.5679416 C100.810032,35.8000361 101.217454,35.2197999 101.624876,35.5679416 C101.974095,35.8290479 101.974095,36.3512604 102.236009,36.5253313 C102.0614,37.6567918 101.333861,38.2660398 100.489915,38.7592405 C99.6459698,39.2524413 99.296751,39.9777365 99.3549542,40.9061143 C99.3549542,41.109197 99.4422589,41.3412915 99.296751,41.4863505 C98.7147198,42.0665867 98.2781963,42.7918819 97.4633525,43.0239763 C97.0559306,43.1400236 96.7940165,43.2850826 96.6194071,43.6622361 C96.5030009,43.9233424 96.3283915,44.0974132 96.1246806,44.2714841 C95.3680399,44.9097439 95.3680399,46.0702162 94.5240945,46.6504524 C94.494993,46.6794642 94.494993,46.7664996 94.494993,46.8245232 C94.4367898,47.317724 94.2039773,47.7529011 93.9129617,48.1590664 C93.7383523,48.4201727 93.5928445,48.7683144 93.825657,49.0584325 C94.291282,49.7257041 94.1748758,50.5090229 94.2621805,51.2053063 C94.3785867,52.2497314 93.8838601,53.2361329 93.2727273,54.1935225 C93.6510476,54.5416642 93.8547586,54.9188177 93.6801492,55.5280657 C93.5346413,55.9922546 93.7674539,56.543479 94.2330789,56.7755735 C95.3098368,57.3267978 95.9209696,58.1971521 96.2701884,59.3286126 C96.3865946,59.7347779 96.561204,60.1119314 96.9686259,60.4020495 C98.0744854,61.1853683 99.1803448,61.9686871 100.286204,62.7810178 C101.333861,62.0847344 102.497923,61.8236281 103.632884,62.142758 C104.360423,62.3458407 104.884251,62.2588052 105.495384,61.9396753 C105.815501,61.7656045 106.193822,61.6495573 106.513939,61.4464746 C107.125072,61.0693211 107.794408,61.0403093 108.434642,61.0403093 C109.016673,61.0693211 109.540502,61.3304274 109.802416,61.9396753 C109.947924,62.2588052 110.035228,62.6069469 110.355345,62.8680532 C110.762767,62.752006 111.170189,62.7229942 111.606713,62.752006 C112.625267,62.752006 113.032689,63.1871831 113.032689,64.1445728 C113.032689,64.8988798 112.974486,65.6531868 112.596166,66.3204584 C112.334252,66.8136591 112.392455,67.2198244 112.741674,67.6550016 C113.963939,69.1926274 114.778783,70.9333359 115.419018,72.7610798 C115.477221,72.9351507 115.710033,73.1382333 115.535424,73.3123042 C115.157103,73.6604459 115.389916,74.0085876 115.535424,74.3277175 C115.826439,74.9079536 115.797338,75.459178 115.680932,76.0974378 C115.535424,76.7356976 115.244408,77.2869219 114.982494,77.8671581 C114.371361,79.3467603 114.254955,80.7973507 115.040697,82.2479411 C115.215307,82.567071 115.360814,82.9152127 115.535424,83.2633544 C116.20476,84.684933 116.874096,86.0774998 116.670385,87.7311729 C116.641283,87.9632674 116.699486,88.1953618 116.815893,88.3984445 C117.572533,89.7039759 118.096361,91.0965427 118.823901,92.4310858 C118.969408,92.6921921 119.056713,93.011322 118.882104,93.156381 C118.591088,93.4464991 118.765697,93.6495818 118.911205,93.8816763 C118.99851,94.0557471 119.085815,94.2588298 119.173119,94.4329006 C119.405932,94.984125 119.667846,95.0711604 120.249877,94.9551132 C121.181127,94.7810423 122.054174,94.2588298 123.043627,94.6649951 C123.189135,94.7230187 123.334643,94.6649951 123.451049,94.5779597 C123.887573,94.2588298 124.382299,94.1137707 124.935229,94.1427825 C125.168042,94.1717943 125.313549,93.9977235 125.429956,93.8526644 C126.07019,93.1853929 126.797729,92.6051567 127.350659,91.8218379 C127.699878,91.3286371 128.049096,90.8064246 128.514721,90.4292711 C129.213159,89.8780467 129.475073,89.1237397 129.41687,88.2823973 C129.387768,87.6731493 129.620581,87.2959958 130.115307,87.0058777 C130.377222,86.8608187 130.610034,86.7157596 130.871948,86.5707006 C131.133862,86.4256415 131.27937,86.2225589 131.366675,85.9324408 C131.65769,85.0910983 131.453979,84.2787677 131.221167,83.4664371 C131.133862,83.1182954 131.017456,82.7121301 131.308472,82.4800356 C132.297925,81.7257286 132.967261,80.6522917 134.218628,80.1881027 C134.887964,79.9269965 135.469995,79.4337957 135.353589,78.5344297 C135.324487,78.3603588 135.382691,78.186288 135.411792,78.0122171 C135.5573,76.967792 135.586402,75.9523787 135.208081,74.9369654 C135.00437,74.3567293 134.887964,73.7764931 134.684253,73.196257 C134.276831,71.8907256 134.276831,70.6432178 134.975269,69.3666983 C135.93562,67.6259898 137.303394,66.2044112 138.72937,64.869868 C139.398706,64.2316082 140.097144,63.6803838 140.562769,62.8390414 C141.028394,61.9686871 141.610425,61.1853683 142.105152,60.3150141 C142.62898,59.3576244 143.094605,58.3712229 143.18191,57.2397624 C143.240113,56.2823727 143.240113,56.2823727 142.337964,56.5724908 C142.221558,56.6015026 142.105152,56.6015026 141.988746,56.6305144 C140.737378,56.7755735 139.515113,57.1237152 138.35105,57.5588923 C137.623511,57.0947034 137.361597,56.543479 137.594409,55.7601602 C138.147339,55.6731248 138.72937,55.7601602 139.107691,55.2669594 C139.515113,54.7447469 140.21355,55.3249831 140.620972,54.8607941 C140.853785,54.5996878 141.261207,54.7737587 141.494019,54.5416642 C141.959644,54.0484635 142.62898,53.8453808 143.240113,53.5842746 C143.443824,53.4972391 143.763941,53.4682273 143.822144,53.2361329 C143.909449,52.6268849 144.404175,52.5978731 144.811597,52.452814 C145.335425,52.2787432 146.004761,52.307755 146.150269,51.553448 C146.150269,51.4954244 146.266676,51.4664126 146.35398,51.4083889 C147.139722,51.0312354 147.809058,50.5380347 147.750855,49.5516332 C147.954566,49.4645978 148.332887,49.5226214 148.274683,49.2905269 C148.187379,48.7683144 148.565699,48.5072081 148.76941,48.1590664 C148.885816,47.9559837 149.031324,47.6658657 148.856715,47.5208066 C148.39109,47.1726649 148.129176,46.5053933 147.401637,46.5053933 C146.877808,46.5053933 146.615894,46.1572516 146.412183,45.6930627 C146.266676,45.344921 146.35398,44.9677675 146.150269,44.5035786 C145.742847,44.8807321 145.42273,45.1708502 145.102613,45.48998 C144.695191,45.8961454 144.229566,46.1572516 143.676636,46.2442871 C143.123707,46.3313225 143.0073,46.3023107 142.978199,45.7220745 C142.949097,45.2288738 142.774488,44.8807321 142.454371,44.6486376 C142.163355,44.6486376 142.221558,45.0548029 141.872339,45.0548029 C141.494019,44.1554369 140.999292,43.3431062 140.329956,42.617811 C139.980738,42.2696693 140.242652,41.6314095 140.708277,41.3703033 C141.1448,41.1382088 141.610425,41.254256 141.843238,41.7764686 C142.308863,42.7628701 142.978199,43.4591535 143.967652,43.9523542 C144.66609,44.3004959 145.189918,44.4745668 145.888355,43.981366 C146.295777,43.6912479 146.615894,43.836307 146.732301,44.3585195 C146.848707,44.735673 147.081519,44.8807321 147.401637,44.9387557 C148.973121,45.199862 150.515504,45.6060273 152.145191,45.4609682 C152.465309,45.4319564 152.785426,45.4609682 153.105543,45.4609682 C153.42566,45.4609682 153.658473,45.5480037 153.862184,45.7800981 C154.473317,46.4473697 155.084449,47.0856295 156.0157,47.317724 C155.579176,48.0430192 155.782887,48.3331373 157.005153,49.0584325 C157.674489,49.0004088 157.849098,48.4781963 157.994606,47.8979601 C158.431129,48.6232553 158.227418,49.3775624 158.402028,50.0448339 C158.780348,51.6114716 159.275075,53.1490974 159.973512,54.6286997 C160.613747,55.9922546 161.312184,57.3848214 161.690505,58.8644237 C161.719606,59.0094827 161.806911,59.1545417 161.894215,59.2415772 C162.243434,59.6477425 162.679958,59.6187307 163.029176,59.0965181 C163.203786,58.8644237 163.291091,58.5743056 163.640309,58.5452938 C163.873122,58.6903528 164.105934,58.7773882 164.222341,59.0094827 C164.01863,60.3150141 164.222341,60.8952502 164.94988,61.1853683 C165.008083,61.1273447 165.095388,61.0693211 165.153591,61.0403093 C165.619216,60.6921676 165.88113,60.169955 165.677419,59.6767543 C165.444606,59.0675063 165.066286,58.4292465 164.338747,58.1681403 C164.280544,58.1391285 164.193239,58.2551757 164.135036,58.2841875 C164.105934,58.3131993 164.076833,58.3422111 164.047731,58.3712229 C163.640309,58.2261639 163.611208,58.0230812 163.960427,57.7619749 C164.105934,57.6459277 164.251442,57.5588923 164.251442,57.3558096 C164.164137,56.3694081 164.484255,55.3830067 164.280544,54.425617 C164.135036,53.67131 164.01863,53.062062 165.008083,52.917003 C165.066286,52.917003 165.124489,52.8589793 165.153591,52.8299675 C165.415505,51.9886251 166.230349,51.6404834 166.783278,51.089259 C167.336208,50.5670465 167.56902,49.7257041 168.383864,49.4645978 C168.558474,49.4065742 168.500271,49.1454679 168.500271,49.0004088 C168.616677,48.3331373 168.820388,48.21709 169.489724,48.3041254 C170.275466,48.3911609 171.061208,48.3911609 171.614138,47.5788302 C172.312575,48.3331373 172.137966,49.7837277 173.534841,49.9577985 C173.447536,50.2769284 173.272927,50.5380347 173.709451,50.7701292 C174.145974,51.0022236 174.320583,51.4374007 174.26238,51.9596133 C174.233279,52.3367668 174.175076,52.7139203 174.320583,53.0330502 C174.786208,53.3521801 175.19363,53.3811919 175.571951,52.917003 C175.688357,52.8009557 176.037576,52.6268849 176.415896,52.4238022 Z M126.972339,27.9958597 C127.350659,28.1119069 127.728979,28.3149895 128.1073,28.2859777 C128.369214,28.5760958 127.990893,28.6341194 127.961792,28.8952257 C128.223706,29.1273202 128.572925,29.301391 128.747534,29.7365681 C129.242261,29.3884265 129.79519,29.301391 130.289917,29.0692966 C130.086206,28.8662139 129.766089,28.9242375 129.620581,28.6051076 C129.9698,27.647718 130.842847,27.7057416 131.744995,27.5026589 C131.27937,28.0538833 131.27937,28.7211549 130.551831,28.9532493 C131.250268,29.5915091 132.065112,29.7075563 132.647144,30.2007571 C133.200073,30.6939578 133.665698,31.274194 134.189526,31.8544302 C133.869409,32.4056545 133.432886,32.5217017 132.734448,32.4636781 C131.774097,32.3766427 130.871948,32.2315837 129.998901,31.7383829 C129.824292,31.6513475 129.591479,31.5643121 129.329565,31.6223357 C128.602026,31.7964065 127.845385,31.883442 127.205151,32.2896073 C127.030542,32.3766427 126.885034,32.4346663 126.710424,32.3766427 C126.099292,32.2025719 125.459057,32.1155364 124.935229,31.5933239 C125.197143,30.1137217 126.011987,29.0112729 126.972339,27.9958597 Z M114.691478,20.7719194 C115.215307,21.0330257 115.768236,20.7719194 116.146557,21.2941319 C116.262963,20.9459902 115.942846,20.8589548 115.942846,20.6558722 C116.088354,20.4237777 116.321166,20.4527895 116.553979,20.3947659 C117.019604,20.2787187 117.339721,19.9015651 117.194213,19.4373762 C117.019604,18.8281282 117.281518,18.5089983 117.776244,18.2769039 C118.038158,18.1318448 118.300072,18.0157976 118.44558,17.7256795 C118.358276,17.4065496 118.06726,17.3195142 117.805346,17.203467 C117.339721,16.9423607 117.194213,16.5071836 117.397924,16.1010183 C117.68894,15.4917703 118.009057,14.8535105 118.765697,14.6504278 C119.202221,14.5633924 119.580541,14.3893216 119.580541,13.8090854 C119.580541,13.6060027 119.696947,13.3739083 119.958862,13.257861 C120.540893,13.0257666 121.093823,13.0257666 121.763159,13.257861 C121.210229,13.867109 120.628198,14.3022861 119.987963,14.621416 C119.580541,14.8244987 119.493237,15.1146168 119.493237,15.5207821 C119.493237,15.9269474 119.609643,16.3041009 119.609643,16.7102662 C119.609643,17.203467 120.366283,17.5806205 121.006518,17.4355614 C121.734057,17.2324788 122.490698,17.2324788 123.218237,17.0293961 C123.625659,16.9133489 123.625659,16.9423607 124.178588,17.2324788 C123.82937,17.8417268 123.683862,17.9287622 122.927221,17.7837031 C122.199682,17.6386441 121.588549,17.8997504 120.948315,18.1608566 C121.734057,19.1182463 121.734057,19.1182463 121.268432,19.7274943 C120.919213,19.4953998 120.599096,18.9441755 120.104369,19.2923172 C119.493237,19.7274943 119.696947,20.3657541 119.92976,20.975002 C119.55144,21.3811674 119.056713,21.5262264 118.561986,21.8163445 C117.979955,21.2070965 117.863549,21.1780847 117.194213,21.5552382 C116.932299,21.7002973 116.670385,21.8163445 116.408471,21.8743681 C115.680932,22.0774508 115.680932,22.1064626 115.215307,21.5552382 C114.807885,21.58425 114.575072,22.048439 114.022142,21.9904153 C114.225853,21.5262264 114.72058,21.3231437 114.691478,20.7719194 Z M128.31101,40.4419254 C127.728979,40.2678546 127.030542,40.3258782 126.44851,40.6740199 C126.157495,40.8480907 125.895581,40.7030317 125.604565,40.6159963 C124.382299,40.1518073 123.160034,39.7166302 121.96687,39.1944176 C121.23933,38.8752878 120.744604,39.2524413 120.249877,39.600583 C119.726049,39.9487247 119.696947,40.4419254 120.046166,40.9351261 C119.755151,41.3122797 119.464135,41.3993151 119.114916,41.109197 C118.969408,40.9931498 118.823901,40.8480907 118.678393,40.8480907 C117.601635,40.8771025 116.874096,40.2388427 116.146557,39.600583 C115.942846,39.4265121 115.680932,39.2234295 115.477221,39.2524413 C114.516869,39.3975003 113.934838,38.7882523 113.265502,38.2080162 C113.614721,37.5697564 113.818432,36.9314966 113.440111,36.2062014 C113.2364,35.8290479 112.916283,35.4518944 112.47976,35.509918 C111.54851,35.654977 110.559056,35.509918 109.686009,36.0031187 C109.540502,36.0901542 109.278588,36.0611424 109.103978,36.0611424 C108.318236,36.0031187 107.532494,36.119166 106.775853,36.264225 C106.193822,36.3802722 105.699095,36.6703903 105.320775,37.1345793 C105.058861,37.4537092 104.767845,37.5407446 104.389525,37.3956855 C103.836595,37.1635911 103.225462,37.482721 102.672532,37.1926029 C102.672532,36.4963195 102.847142,36.2932368 103.574681,36.0611424 C104.156712,35.8870715 104.767845,35.8870715 105.262572,35.4518944 C105.757298,35.0167173 106.222923,34.6685756 106.33933,33.8852567 C106.426634,33.3050206 106.834056,32.6667608 107.474291,32.3186191 C107.590697,32.2605955 107.736205,32.17356 107.852611,32.1155364 C108.434642,31.883442 108.842064,31.5353003 108.609252,30.8390169 C109.103978,30.4908752 109.569603,30.3458161 110.122533,30.6359342 C110.471752,30.8100051 110.82097,30.7809932 111.141088,30.519887 C111.403002,30.2877925 111.723119,30.1427335 112.014135,29.9686626 C112.537963,29.6495327 112.85808,29.7075563 113.119994,30.2587807 C113.643822,31.3032058 114.429564,32.0575128 115.564525,32.4636781 C116.088354,32.6667608 116.466674,33.1019379 116.844994,33.4790914 C117.077807,33.7111859 117.252416,34.001304 116.990502,34.3204339 C116.728588,34.6395637 116.553979,35.1327645 115.971947,34.9586936 C115.535424,34.8426464 115.128002,34.7846228 114.575072,35.0747409 C115.244408,35.5389298 115.913744,35.7420125 116.524877,35.9450951 C116.874096,35.7130007 116.670385,35.4228826 116.786791,35.1907881 C117.659838,34.8136346 118.241869,34.3204339 117.659838,33.2760088 C118.009057,32.637749 118.416479,33.1599615 118.823901,33.2179851 C118.940307,32.6957726 118.532885,32.5507136 118.241869,32.4926899 C117.485229,32.3476309 116.9614,31.7964065 116.292064,31.4482648 C115.535424,31.0711113 115.128002,30.2587807 114.72058,29.5044737 C114.458666,29.0402848 114.836986,28.7501667 115.186205,28.4890604 C115.419018,28.6341194 115.506322,28.8952257 115.622729,29.0983084 C116.292064,30.2007571 117.339721,30.8680287 118.474682,31.419253 C119.173119,31.7673947 119.638744,32.1445482 119.55144,33.0729261 C119.493237,33.6531623 119.842455,34.2333984 120.511791,34.4945047 C120.831908,34.6105519 121.093823,34.7846228 121.093823,35.1617763 C121.122924,35.7420125 121.501244,35.9450951 122.083276,35.9741069 C122.141479,35.4809062 122.519799,35.1617763 122.956323,34.9586936 C123.043627,34.1173512 121.763159,34.0303158 122.025073,33.1309497 C122.34519,32.9858907 122.432495,33.4210678 122.72351,33.392056 C122.985424,33.1889733 123.014526,32.6667608 123.538354,32.7537962 C124.062182,32.8408316 124.120385,33.3050206 124.236792,33.7401977 C124.440502,34.4364811 124.702417,35.1037527 125.022534,35.8000361 C125.720971,35.8000361 126.303003,36.2352132 126.914135,36.5543431 C127.263354,36.5253313 127.234253,36.0321305 127.612573,36.0611424 C127.903589,36.0901542 128.194604,36.1771896 128.398315,36.3512604 C128.805737,36.6994021 129.184057,36.6703903 129.591479,36.3802722 C129.998901,36.0901542 130.406323,35.9741069 130.871948,36.0901542 C131.308472,37.018532 131.075659,37.8888863 130.697339,38.7592405 C130.639136,38.8752878 130.580932,38.9623232 130.551831,39.0783704 C130.173511,40.1227955 129.649682,40.8190789 128.31101,40.4419254 Z M136.634058,55.2089358 C135.993823,54.4546288 135.324487,53.7293336 134.538745,53.1490974 C134.160425,52.8589793 133.985815,52.5108376 133.869409,52.0756605 C133.753003,51.553448 133.578394,51.089259 133.112769,50.7411173 C132.76355,50.5090229 132.734448,50.1608812 132.792651,49.8127395 C132.850854,49.2615151 132.647144,48.826338 132.356128,48.3621491 C131.337573,46.8245232 130.610034,45.1128265 129.882495,43.4301417 C130.377222,43.082 130.72644,43.2560708 131.104761,43.6912479 C132.006909,44.735673 132.792651,45.8961454 133.31648,47.0856295 C133.840308,48.2461018 134.102222,49.4645978 135.208081,50.2479166 C135.324487,50.9732118 135.877417,51.3793771 136.313941,51.8725779 C136.517652,52.1046723 136.663159,52.3367668 136.604956,52.6558967 C136.313941,52.6849085 136.255737,52.3367668 135.964722,52.3367668 C135.848316,53.062062 136.721363,53.2651447 136.837769,53.9034044 C136.925073,54.5126524 137.245191,55.0928886 137.332495,55.7311484 C136.925073,55.7311484 136.808667,55.4120185 136.634058,55.2089358 Z M141.755933,36.0321305 C141.464917,36.0901542 141.232105,36.0031187 141.028394,35.8580597 C140.679175,35.6259652 140.446363,35.3068353 139.951636,35.3068353 C139.515113,35.3068353 139.369605,34.7265992 139.66062,34.3784575 C139.864331,34.146363 140.038941,33.9432803 139.951636,33.6241505 C139.864331,33.3340324 140.271753,33.3050206 140.271753,32.9858907 C139.631519,32.5217017 139.078589,31.9124538 138.438355,31.3322176 C138.205542,31.1291349 137.97273,30.9550641 138.030933,30.6069224 C138.060034,30.2587807 138.060034,30.0266862 137.652613,29.8816272 C137.448902,29.8236036 137.448902,29.5334855 137.565308,29.3594146 C137.710816,29.156332 137.856324,28.8662139 138.089136,28.7791785 C138.816675,28.5180722 139.2823,27.8798124 140.009839,27.5316707 C141.31941,28.1699305 141.31941,28.1699305 140.970191,29.0112729 C140.271753,28.9822611 140.271753,28.9822611 139.689722,29.7365681 C140.068042,30.0847098 140.38816,30.4908752 140.824683,30.7809932 C141.348511,31.1291349 141.69773,31.5062885 141.581324,32.1445482 C142.017847,32.2605955 141.930542,31.7673947 142.308863,31.7673947 C142.658082,31.883442 142.774488,32.2605955 142.978199,32.6087372 C142.62898,32.8698434 142.25066,32.637749 141.930542,32.8118198 C141.843238,33.2179851 142.017847,33.4790914 142.337964,33.6531623 C142.803589,33.9432803 143.065503,34.291422 142.949097,34.8716582 C142.890894,35.1617763 143.123707,35.4228826 143.123707,35.7710243 C142.658082,35.9450951 142.192457,35.9450951 141.755933,36.0321305 Z" id="Shape"></path>
                        <path d="M76.9227197,68.79799 C76.4125027,68.7106004 76.0223367,68.3901719 75.6621835,68.0406136 C75.211992,67.5745358 74.6717622,67.1958476 74.1615452,66.7880295 C73.9814686,66.6423802 73.7713792,66.4676011 73.5312771,66.5841205 C72.780958,66.8754191 72.0606516,66.70064 71.3403452,66.5549906 C71.0702303,66.4967309 70.7701026,66.3510816 70.3499239,66.5841205 C70.6200388,65.8267441 70.1698473,65.6519649 69.6296175,65.4771857 C69.1194005,65.3024066 68.669209,65.0402378 68.279043,64.8654586 C67.8588643,64.8945885 67.7988388,65.3315364 67.37866,65.2441469 C67.5887494,64.3993809 66.748392,64.3411211 66.3282132,63.9041732 C66.2982005,63.6128746 66.6283409,63.2341864 66.3282132,63.0302773 C65.7279579,62.6224593 65.6079068,62.0107322 65.5778941,61.3698752 C65.5478813,61.1659662 65.4878558,60.9620571 65.3077792,60.8164078 C64.4974345,60.2046807 63.8071409,59.4764342 62.5766175,59.5346939 C61.4061196,59.5929536 60.32566,59.1268758 59.7554174,57.9616813 C59.6353664,57.7286424 59.425277,57.6412529 59.2151877,57.5247334 C58.8850472,57.3499542 58.3748302,57.2334348 58.2547791,56.9421362 C58.014677,56.4177987 57.6545238,56.1847598 57.1743196,55.9808507 C56.8141664,55.8352014 56.9042047,55.6021625 57.2043323,55.3691236 C56.4840259,55.3399938 55.8237451,55.4273833 55.2234898,55.8643313 C54.7132727,55.5730327 54.1730429,55.3399938 53.5427748,55.3691236 C52.6423919,55.4273833 51.8920727,55.1360847 51.4118684,54.233059 C51.1117408,55.077825 50.0012684,55.3108639 50.2113578,56.3595389 C49.9712557,56.2721493 49.7911791,56.0973702 49.8211918,56.0391105 C50.181345,55.5147729 49.8512046,54.6991368 50.571511,54.3787083 C50.3314089,53.8543708 50.0312812,54.1165396 49.8512046,54.2621889 C49.3109748,54.6408771 48.770745,55.0195653 48.1104642,55.1069549 C47.5102088,55.2234743 47.2100812,55.6021625 47.1200429,56.0682403 C46.9699791,56.7382271 46.5498003,57.0877855 46.0095705,57.3790841 C45.6794301,57.1169153 45.3492897,56.8547466 45.0791748,56.6217077 C44.8990982,56.4760584 44.6890088,56.3886688 44.4188939,56.4760584 C43.9987152,56.5925778 43.5185109,56.5051882 43.128345,56.767357 C42.9782812,56.8838764 42.7982046,56.9130063 42.618128,56.8256167 C42.0178726,56.6217077 41.2675535,55.5730327 41.2075279,54.9321757 C41.1174897,54.0582798 41.4476301,53.2717736 41.6877322,52.4561374 C41.837796,51.90267 41.717745,51.6113714 41.2375407,51.2909429 C40.9374131,51.1161638 40.6372854,51.057904 40.307145,51.057904 C39.526813,51.057904 38.7164684,51.057904 37.9061237,51.057904 C38.4463535,49.4557616 39.1966726,48.0575283 39.6468641,46.5719053 C39.3467364,46.5136456 39.0766216,46.4845157 38.8065067,46.4553858 C37.8460981,46.3097365 37.21583,46.6884247 36.9157024,47.5914505 C36.8256641,47.8536192 36.8256641,48.2614373 36.5555492,48.3488269 C35.685179,48.6401255 34.8148088,48.960554 33.884413,48.9896838 C33.7643619,48.9896838 33.6142981,48.8440345 33.494247,48.7857748 C32.3837747,48.0866581 31.8135321,46.4553858 32.1736853,45.2028018 C32.473813,44.1541267 33.0740683,43.1637114 32.9540173,42.0276468 C32.9240045,41.7072183 33.1641066,41.5906989 33.4042087,41.4450496 C34.2445662,40.9207121 35.0849237,40.4546343 35.8952683,39.872037 C36.4655109,39.464219 37.095779,39.464219 37.5759832,39.6972579 C38.3563152,40.0759461 38.896545,39.9594266 39.4667875,39.3476995 C40.0370301,38.7651023 40.8473748,39.4933488 41.5076556,39.0855308 C41.6277067,39.027271 41.837796,39.0564009 41.8978216,39.2020502 C42.2579748,39.8429072 42.738179,39.5516085 43.248396,39.4059592 C43.6085492,39.8137773 44.2988429,40.0468162 44.028728,40.7459329 C43.6685748,41.6489586 44.028728,42.3772052 44.5689578,43.0763218 C44.6890088,43.251101 44.8690854,43.3676205 45.1091876,43.251101 C45.7394556,42.3189454 45.6194046,41.3285301 45.439328,40.308985 C45.3492897,39.7555176 45.1392003,39.1729203 45.559379,38.6485828 C46.1596344,37.8912064 46.7899025,37.1629599 47.6602727,36.6677522 C48.1704897,36.3764536 48.6807067,36.0560251 49.160911,35.7355966 C50.0312812,35.1529994 51.0217025,34.599532 50.8716387,33.3178181 C50.8716387,33.2012986 50.8716387,33.0847792 51.0217025,33.0265194 C51.4418812,32.8808701 51.5019067,32.4730521 51.7119961,32.1526236 C51.7720216,32.0361041 51.8020344,31.8321951 52.0121238,31.8904548 C52.4623153,32.0069743 52.6423919,31.6574159 52.7624429,31.424377 C53.1225961,30.8126499 53.6928387,30.579611 54.3231068,30.3465721 C54.9533749,30.1135332 55.6736812,30.1426631 56.2739366,29.7639749 C56.1238727,29.1231179 56.1238727,29.1231179 56.4540132,28.6570401 C56.6941153,28.3074818 56.9642302,28.045313 57.3844089,27.9287936 C58.3748302,27.6083651 59.3352387,27.0840276 60.5057366,26.9092484 C59.6953919,27.5501054 59.6953919,27.5501054 60.0555451,28.1035728 C61.5561834,27.4918457 63.1168473,27.0548977 64.5274473,26.2101317 C64.4073962,26.0062227 64.4974345,25.7149241 64.3173579,25.511015 C63.9872175,25.4818852 63.8071409,25.7149241 63.6270643,25.8897033 C62.6966685,26.7635991 61.9163366,26.5888199 61.4061196,25.4236255 C61.7962855,24.9575477 62.0964132,24.4332102 62.3065026,23.8506129 C61.8563111,23.5301844 61.4061196,23.5010546 60.9259153,23.7340935 C60.5357494,23.9088726 60.0855579,24.0253921 59.6653791,24.1710414 C59.6353664,24.1419115 59.5753408,24.0836518 59.5453281,24.0545219 C59.7854302,23.5010546 60.4757238,23.7049636 60.8058643,23.3554053 C61.2560558,22.8601976 61.8262983,22.8310677 62.4565664,22.8601976 C62.9667834,22.8893275 63.4770004,22.8601976 63.9872175,22.8601976 C65.2477537,22.8893275 66.4182515,22.7145483 67.4987111,22.0154316 C67.6787877,21.8989122 67.9188898,21.6950031 68.2490303,21.8115226 C67.7388132,22.3067302 67.2886218,22.7436782 66.8384303,23.2097559 C66.3882388,23.7049636 65.8179962,24.0545219 65.5478813,24.6953789 C66.4482643,24.9575477 67.4386856,24.4914699 68.2190175,25.1323268 C68.7892601,24.6953789 68.6391962,25.4527553 68.9093111,25.511015 C69.2394516,25.307106 69.5996047,25.1323268 69.8397069,24.7536386 C69.4795537,24.3458206 69.5395792,23.8797428 69.7796813,23.3554053 C69.3895154,23.3554053 69.059375,23.3554053 68.6992218,23.3554053 C68.669209,23.0058469 68.5791707,22.7145483 68.3390686,22.568899 C68.8192728,21.9863017 68.6992218,21.1997955 69.3294898,20.8211073 C69.2694643,20.6754579 69.2094388,20.5589385 69.179426,20.4424191 C68.9693367,19.7141725 68.7592473,19.0733155 67.8888771,18.7237572 C67.4086728,18.5198482 66.7784047,18.0246405 67.2886218,17.2672641 C67.3186345,17.2090044 67.3186345,17.0924849 67.3186345,17.0050953 C67.1685707,16.2768488 67.0185069,15.5486022 66.868443,14.8203557 C66.5082898,14.9077453 66.2681877,15.0825244 66.0580983,15.2864335 C65.6379196,15.6942515 65.1277026,15.8981606 64.6174856,16.1603293 C64.3173579,16.3059786 64.0772558,16.3351085 63.8071409,16.1020696 C63.5070132,15.8690307 63.4770004,15.6359918 63.5070132,15.2864335 C63.537026,14.8786154 63.9572047,14.762096 64.047243,14.3834078 C63.5970515,14.3542779 63.2669111,14.2086286 62.9967962,13.8882001 C62.7566941,13.5969015 62.4865792,13.3347327 62.1564387,13.1308237 C61.346094,13.480382 60.5057366,13.1890834 59.6953919,13.1890834 C59.5153153,13.480382 59.2452004,13.7716806 59.1551621,14.0921091 C58.91506,14.966005 58.3148047,15.5777321 57.624511,16.1603293 C57.5944983,16.1894592 57.5644855,16.2768488 57.5344727,16.3351085 C58.0747025,16.5681474 58.0446898,16.9177057 57.8346004,17.3837835 C57.4144217,18.345069 56.4540132,18.6946273 55.6436685,18.8985364 C54.7732983,19.1315753 54.6232344,19.5685232 54.5632089,20.2093802 C54.4731706,21.083276 53.9629536,21.6076135 53.0625706,21.8406524 C52.9125068,21.4910941 52.7624429,21.1706656 52.6423919,20.8211073 C52.8224685,20.6463281 53.1826217,20.8211073 53.2126344,20.5006788 C53.1526089,20.3258996 52.8524812,20.4424191 52.8224685,20.1802503 C52.882494,19.7141725 53.2126344,19.3063544 53.4227238,18.7820169 C52.2822387,18.985926 51.3818557,18.5198482 50.6015238,17.9663808 C49.9412429,17.500303 49.3409876,17.0924849 48.5006301,17.1798745 C48.4105918,16.1020696 48.3205535,15.8981606 47.9904131,15.6942515 C48.6206812,14.9077453 49.4310259,14.325148 50.3914344,13.91733 C51.1117408,13.6260313 51.7720216,13.2182133 52.492328,12.9269146 C52.882494,12.7521355 53.1225961,12.2569278 53.4827493,12.227798 C54.5031834,12.1695382 55.2535025,11.5578111 56.1238727,11.2665125 C56.1538855,11.2956424 56.1838983,11.3247722 56.2439238,11.383032 C56.0638472,11.7617202 55.703694,11.9656292 55.313528,12.1404084 C55.5236174,12.3734473 55.8837706,12.3443174 55.8237451,12.6938758 C56.1838983,12.6064862 56.5740642,12.5773563 56.8141664,12.2860577 C57.1443068,11.9364993 57.4744472,11.9656292 57.8346004,12.227798 C58.1647408,12.4608369 58.4948813,12.4025771 58.7950089,12.2860577 C58.9750855,11.6743306 58.4348557,11.5578111 58.1647408,11.3247722 C57.8646132,11.0626035 57.4444344,10.8878243 57.2643579,10.4800062 C57.6845366,10.3052271 57.8646132,10.6839153 58.1947536,10.742175 C58.404843,10.4217465 58.7349834,10.2760972 59.1551621,10.2469673 C59.6953919,10.2469673 60.2356217,9.92653886 60.3856855,9.51872079 C60.5657621,9.052643 60.9559281,8.79047424 61.1059919,8.49917562 C61.1660175,8.17874714 60.7458387,8.14961728 60.9859409,7.85831866 C61.6162089,7.85831866 62.2764898,7.91657838 62.9367707,7.82918879 C63.6870898,7.74179921 64.1973068,8.00396797 64.5874728,8.58656521 C64.3473707,8.96525341 63.9572047,8.84873397 63.6270643,8.87786383 C63.14686,8.93612355 62.8767451,9.11090272 62.8767451,9.60611038 C63.4169749,9.81001941 63.8371536,9.78088955 64.1973068,9.31481176 C64.4674217,8.96525341 64.8275749,8.93612355 65.2477537,9.02351314 C65.457843,9.43133121 65.3978175,9.72262983 64.9176132,9.92653886 C64.5274473,10.0721882 63.9271919,10.2178375 63.8371536,10.4800062 C63.537026,11.383032 62.8767451,11.1499931 62.3365153,11.0334736 C61.6762345,10.8878243 61.2560558,11.0626035 60.8959026,11.5578111 C61.4061196,11.9947591 61.4061196,11.9947591 61.9763621,11.7617202 C62.9067579,11.383032 63.2669111,11.4121618 63.6270643,12.1986681 C63.9572047,12.8977848 64.4974345,13.072564 65.1277026,13.2473431 C65.6079068,13.3638626 66.0580983,13.5095119 66.5383026,13.6551612 C66.6883664,13.1599535 66.2381749,12.9269146 66.1481366,12.6064862 C66.1781494,12.5482264 66.2381749,12.5190966 66.2681877,12.4608369 C66.748392,12.5773563 67.0485196,13.072564 67.6487749,13.1599535 C67.6187622,12.635616 68.0689537,12.431707 68.3690813,12.1695382 C68.2490303,11.8491098 68.0389409,11.6160709 67.8588643,11.4121618 C67.3186345,10.8004347 67.3486473,10.7130451 68.1289792,10.3052271 C68.4291069,10.4800062 68.5491579,10.8004347 68.7592473,11.0334736 C68.9693367,11.2956424 69.2994771,11.4704215 69.5395792,11.2373827 C70.0197835,10.742175 70.8601409,10.8004347 71.2202941,10.1595778 C70.6800643,9.40220134 69.8997324,9.02351314 68.9693367,8.90699369 C69.0293622,8.55743535 69.2694643,8.47004576 69.3595026,8.29526659 C69.5395792,7.9748381 69.5095664,7.65440962 69.179426,7.45050059 C68.6992218,7.15920197 68.2190175,6.7513839 67.6787877,6.66399431 C67.1085452,6.57660473 66.8084175,6.31443597 66.5383026,5.93574776 C66.2381749,5.46966997 65.8780217,5.32402066 65.3377919,5.38228038 C64.8876005,5.41141025 64.3773834,5.52792969 64.0172302,5.38228038 C63.4169749,5.14924149 62.9067579,5.44054011 62.3665281,5.49879983 C61.8563111,5.55705956 61.5561834,5.99400749 61.0759792,6.1396568 C60.9559281,5.58618942 61.6162089,5.673579 61.6162089,5.23663107 C60.2656345,5.20750121 59.2752132,5.87748804 58.3748302,6.69312418 C57.9846642,7.04268252 58.2247664,7.53789017 58.7349834,7.65440962 C59.0050983,7.71266935 59.3352387,7.56702004 59.5453281,7.85831866 C59.1551621,8.61569507 57.8646132,9.51872079 56.9042047,9.69349996 C56.7241281,9.37307148 56.9642302,9.25655203 57.1743196,9.052643 C57.5344727,8.73221452 57.4444344,8.35352631 56.994243,8.207877 C56.8441791,8.14961728 56.6340898,8.26613672 56.5140387,8.00396797 C56.4840259,7.53789017 56.5740642,7.01355266 56.3339621,6.54747487 C56.6340898,6.19791652 56.994243,6.05226721 57.3844089,6.02313735 C58.1647408,5.93574776 58.8250217,5.58618942 59.6053536,5.00359218 C58.91506,5.00359218 58.3748302,5.03272204 57.8646132,5.00359218 C57.3543961,4.97446232 56.9342174,5.12011163 56.604077,5.52792969 C56.09386,6.16878666 55.4335791,6.60573459 54.7132727,6.9844228 C54.2030557,7.24659155 53.782877,7.5961499 53.6928387,8.14961728 C52.0121238,7.94570824 51.4418812,8.17874714 51.1117408,9.22742217 C50.3314089,9.22742217 49.5210642,9.22742217 48.7107195,9.22742217 C48.4105918,9.22742217 48.0804514,9.25655203 47.870362,8.99438328 C47.4801961,8.41178603 46.9699791,8.55743535 46.459762,8.76134438 C46.1596344,8.87786383 45.6794301,8.76134438 45.6194046,9.25655203 C45.5893918,9.37307148 45.439328,9.37307148 45.3192769,9.37307148 C44.2688301,9.37307148 43.248396,9.37307148 42.1979492,9.37307148 C42.2579748,9.02351314 42.6781535,9.14003259 42.7982046,8.76134438 C42.6481407,8.67395479 42.4680641,8.52830548 42.2879875,8.52830548 C41.1775152,8.41178603 40.1270684,7.88744852 38.9565705,8.00396797 C38.8665322,8.00396797 38.7164684,8.03309783 38.6864556,8.00396797 C38.3563152,7.47963045 37.996162,7.82918879 37.6360088,7.94570824 C37.5759832,7.9748381 37.5159577,7.94570824 37.4559322,7.94570824 C37.1858173,7.88744852 37.3058683,7.47963045 36.9157024,7.47963045 C36.0753449,7.88744852 35.0849237,7.94570824 34.1245151,8.14961728 C33.8243875,8.207877 33.5242598,8.26613672 33.2241321,8.12048741 C32.8939917,7.9748381 32.6538896,8.12048741 32.3837747,8.207877 C31.57343,8.41178603 30.7630853,8.73221452 29.9227279,8.12048741 C29.5025491,7.82918879 28.9022938,7.77092907 28.362064,7.80005893 C27.5517193,7.82918879 26.7413747,7.80005893 25.9610427,7.65440962 C24.7905449,7.42137073 23.5900342,7.42137073 22.4795619,6.86790335 C22.329498,6.78051376 22.209447,6.83877349 22.0593831,6.86790335 C20.7388214,7.15920197 19.4182597,7.33398114 18.1577235,7.77092907 C17.0472512,8.17874714 15.9067661,8.52830548 14.7062554,8.67395479 C14.4661533,8.70308466 14.2560639,8.76134438 14.0759873,8.96525341 C14.1660256,9.34394162 14.2560639,9.75175969 14.3461022,10.1304479 C14.0459746,10.3052271 13.6257958,10.3634868 13.5057448,10.2178375 C13.1455916,9.78088955 12.8154512,10.0430583 12.5153235,10.1304479 C12.0051065,10.2469673 11.4948894,10.4800062 10.9546597,10.538266 C10.3243916,10.6256555 10.1743277,10.9169542 10.1743277,11.4995514 C10.8946341,11.7034604 11.6149405,11.6452007 12.3652597,11.6160709 C12.1251575,12.2860577 12.0951448,12.3734473 11.7650043,12.3151875 C10.8946341,12.1986681 10.144315,12.7230056 9.33397028,12.7812653 C8.52362559,12.8395251 7.86334474,13.2473431 7.23307665,13.6842911 C6.72285962,14.0338494 6.27266813,14.4999272 6.39271919,15.2573036 C6.75287239,15.2281737 7.02298728,15.0242647 7.29310218,15.1990439 C7.26308941,15.4612126 6.90293622,15.5777321 6.90293622,15.9272904 C7.50319154,15.8399009 8.10344687,15.7816411 8.70370219,16.2185891 C7.47317878,16.6846669 6.33269366,17.1507446 5.22222131,17.5585627 C4.56194046,17.8207315 3.87164684,18.0537704 3.21136598,18.2868093 C2.16091916,18.6654975 1.11047235,19.0441857 0,19.3063544 C0,19.3646142 0,19.4228739 0,19.4811336 C1.44061278,19.3354843 2.82120002,18.985926 4.20178726,18.6363676 C5.55236174,18.2868093 6.93294898,17.9663808 8.13345963,17.2090044 C8.67368942,16.8885759 9.27394475,16.7720564 9.90421284,16.6846669 C10.8045958,16.5681474 11.7349916,16.3933682 12.3652597,15.6942515 C12.4252852,15.4612126 12.0951448,15.4029529 12.2151958,15.1407842 C12.965515,15.2281737 13.6257958,14.8203557 14.3461022,14.7038362 C14.376115,14.7329661 14.4061278,14.762096 14.4361405,14.7912258 C14.3160895,15.1116543 13.8358852,15.0825244 13.7458469,15.4903425 C14.766281,15.4320828 15.7266895,15.2573036 16.5970597,14.8203557 C17.1673022,14.5290571 17.6775193,14.4999272 18.2177491,14.8203557 C18.7579789,15.1407842 19.3582342,15.169914 19.9284767,15.2864335 C20.918898,15.4903425 21.2790512,15.8690307 21.2190257,16.859446 C21.1890129,17.5585627 21.1289874,18.2285495 21.0989746,18.8985364 C21.4891406,19.1315753 21.8793065,18.8694065 22.2394597,19.1024454 C21.7592555,20.1219906 22.0293704,21.1997955 22.0893959,22.2193406 C21.7892682,22.4523795 21.5491661,22.1028212 21.2490384,22.2484705 C20.798847,23.2680157 22.1194087,23.413665 22.2694725,24.1419115 C22.0593831,24.4332102 21.8793065,24.7536386 21.7292427,25.103197 C21.429115,25.8897033 21.0689619,26.6179498 20.4386938,27.2588068 C19.7784129,27.8996637 19.0581065,28.5405207 18.9680682,29.5600659 C18.9680682,29.6765853 18.8180044,29.8222346 18.7279661,29.9096242 C17.8575959,30.6378708 18.0076597,31.6574159 18.0376725,32.5895715 C18.0676852,33.2595583 18.3378001,33.9004153 18.3077874,34.5704021 C18.2777746,35.3277785 18.6379278,35.7064668 19.2381831,35.9977654 C19.898464,36.3181939 20.1085533,36.8425314 20.1685789,37.5416481 C20.2286044,38.5903231 20.1985916,39.6972579 20.8288597,40.5711537 C20.7088087,40.8624523 20.3786682,40.8624523 20.3186427,41.1828808 C20.5887576,41.5324392 20.798847,41.9693871 21.309064,42.202426 C21.5191533,42.3189454 21.819281,42.5519843 21.7592555,42.8141531 C21.5491661,43.5423996 22.0293704,43.9210878 22.4195363,44.3871656 C22.6296257,44.6202045 22.8397151,44.8823733 22.8697278,45.2319316 C22.8697278,45.2610615 22.9597661,45.2901914 23.0197917,45.3193212 C23.229881,45.2319316 23.3499321,45.0862823 23.4399704,44.9115032 C23.1698555,44.3289059 22.8097023,43.7463087 22.6896512,43.1637114 C22.4495491,42.0567767 21.9693448,41.0081016 21.5491661,39.9594266 C21.2790512,39.3185696 21.2490384,38.7651023 21.5191533,38.182505 C21.9993576,38.182505 22.4795619,38.1242453 22.4795619,38.7942321 C22.4795619,39.7846474 22.8397151,40.6585433 23.5,41.4159197 C23.7100853,41.6489586 24.0102129,41.8819975 23.9201746,42.2315558 C23.740098,42.9306725 24.130264,43.3676205 24.5804555,43.8336983 C25.0006342,44.2415163 25.3307746,44.736724 25.7209406,45.1736719 C26.2011449,45.6688796 26.1711321,46.2514768 26.0210683,46.8049442 C25.7509534,47.8536192 25.7509534,47.9118789 26.5913108,48.523606 C27.1915661,48.960554 27.851847,49.2518526 28.4521023,49.6596707 C29.262447,50.213138 30.16283,50.6209561 31.063213,50.9996443 C31.6034428,51.2035534 32.1736853,51.2909429 32.7139151,51.0287742 C33.3141704,50.7666054 33.7643619,50.9996443 34.1845407,51.3492027 C34.4846683,51.6405013 34.7547832,51.9317999 35.0248981,52.2522284 C35.1449492,52.3978777 35.2650002,52.6017867 35.5051024,52.6309166 C36.4955237,52.7765659 37.3959066,53.3009034 38.4163407,53.388293 C38.6564428,53.6504618 38.5964173,54.02915 38.8365194,54.2621889 C39.2867109,54.6700069 39.4968003,55.1360847 39.406762,55.7478118 C40.1270684,56.0973702 40.5472471,56.7090973 41.1174897,57.1751751 C41.2675535,57.2916945 41.3575918,57.5538633 41.5976939,57.4956036 C42.1079109,57.3499542 42.4380514,57.612123 42.7681918,57.9325515 C42.9482684,58.0782008 43.0983322,58.3112397 43.3684471,58.1947202 C43.6685748,58.0782008 43.6985875,57.8742918 43.638562,57.5538633 C43.5485237,57.1751751 43.9086769,56.971266 44.2088046,56.8838764 C44.4789195,56.7964869 44.8390727,56.971266 44.8690854,57.2043049 C44.9891365,57.9616813 45.7394556,58.5442786 45.5293663,59.4181744 C45.439328,59.7386029 45.4993535,60.1172911 45.5293663,60.4668495 C45.5893918,61.1659662 45.3492897,61.6903037 44.7790471,62.1563815 C44.2688301,62.5933294 44.2388173,63.4089655 43.5185109,63.6711343 C43.4284726,63.7002642 43.4284726,63.9333031 43.3684471,64.0789524 C43.3084216,64.2828614 43.2784088,64.4867704 43.1583578,64.6615496 C42.6481407,65.4480559 42.7681918,66.1180427 43.4884982,66.70064 C43.3384343,66.8754191 43.2183833,66.9919386 43.0983322,67.1375879 C42.6481407,67.6036657 42.5881152,68.0697435 42.7681918,68.7106004 C42.9782812,69.3805873 43.5785365,69.7010157 43.8486514,70.2544831 C44.8390727,72.3227033 46.3997365,74.0996249 47.2701067,76.2552347 C47.4501833,76.6921826 47.7803237,77.0126111 48.2005025,77.3039097 C49.1909238,77.9738966 50.1513323,78.6730132 51.1117408,79.3430001 C51.3818557,79.5469091 51.6219578,79.7216883 51.6819833,80.0712466 C51.8320472,81.0034022 52.0721493,81.9355578 52.1922004,82.8968432 C52.372277,84.7320245 52.2822387,86.5672059 52.3422642,88.3732573 C52.3422642,88.8102052 52.372277,89.2471532 52.5223408,89.6549712 C52.9425195,90.7910358 52.8524812,91.9271005 52.7624429,93.0922949 C52.6724046,94.2866193 52.2222131,95.5683332 53.1225961,96.675268 C53.2726599,96.879177 53.2126344,97.1413458 53.2126344,97.3452548 C53.2126344,98.1026312 53.4527365,98.8308778 53.6628259,99.5591243 C53.7228514,99.7921632 53.8128897,100.112592 54.2330685,99.8795528 C54.3831323,99.6465139 53.902928,99.3552153 54.293094,99.0639167 C54.68326,99.6465139 54.5932217,100.316501 54.8333238,100.986488 C54.3831323,100.840838 54.1430302,100.986488 53.9329408,101.365176 C53.9929663,101.598215 54.4131451,101.743864 54.2030557,102.093422 C54.0229791,102.384721 54.0529919,102.705149 54.1130174,103.083838 C54.4431578,103.112967 54.803311,103.229487 54.9833876,103.637305 C54.5031834,104.045123 54.7132727,104.482071 55.0134004,104.889889 C55.4635919,105.501616 55.8837706,106.142473 56.3639749,106.7542 C57.5344727,108.181563 58.8550345,109.434148 60.8658898,109.696316 C61.1960302,109.725446 61.4961579,109.841966 61.8262983,109.929355 C62.5766175,110.133264 63.0868345,109.900225 63.5970515,109.171979 C63.3269366,109.084589 63.0568217,108.96807 62.7566941,108.88068 C61.8863238,108.676771 61.2560558,108.181563 60.7458387,107.511577 C60.32566,106.958109 59.5153153,106.462902 60.3556728,105.647265 C60.0255323,104.919019 60.6257877,104.423811 60.9559281,103.841214 C60.7458387,103.695565 60.5657621,103.579045 60.4156983,103.462526 C60.2656345,103.316877 60.1155706,103.200357 59.9655068,103.025578 C59.5453281,102.5595 59.5153153,102.064292 59.9955196,101.598215 C60.1155706,101.452565 60.2656345,101.336046 60.2056089,101.161267 C60.0855579,100.54954 60.32566,100.025202 60.7758515,99.5882542 C59.7554174,99.2969556 59.5453281,99.0639167 59.6053536,98.2774104 C59.8454557,98.1900208 60.0555451,98.3939298 60.2956472,98.3648 C60.9859409,98.3065403 61.2560558,98.0152416 61.1660175,97.2869951 C61.1360047,96.9665666 61.1960302,96.7335277 61.4661451,96.5004888 C62.0964132,96.5296187 62.7266813,96.5004888 63.3269366,96.2965798 C64.0772558,96.0635409 64.6474983,94.5487881 64.0772558,94.1118401 C63.4770004,93.6748922 63.4469877,93.0049054 62.9667834,92.5679574 C63.14686,92.4223081 63.2368983,92.5388276 63.3269366,92.5970873 C64.7375366,93.7040221 65.8179962,93.1796845 66.4182515,91.7814512 C66.7183792,91.0532046 67.0485196,90.3540879 67.1385579,89.5967115 C67.8888771,89.3928025 67.8888771,89.3928025 68.2490303,88.7810754 C68.7292345,87.9654392 68.8792984,87.0915434 68.669209,86.1885176 C68.5491579,85.7224399 68.6992218,85.3728815 69.059375,85.1398426 C70.1098218,84.4698558 71.0702303,83.6833495 72.3307665,83.3920509 C73.411226,83.1298821 74.0114814,82.2851161 74.2515835,81.3820904 C74.6717622,79.6051688 75.1219537,77.8282472 74.9718899,75.9639361 C74.9418771,75.6435076 75.0019027,75.352209 75.2420048,75.0609104 C76.112375,73.9539756 76.7726559,72.7305214 77.4329367,71.4779373 C77.8831282,70.6331713 77.7630771,69.9631845 77.4329367,69.2058081 C77.3729112,69.0018991 77.2228474,68.8562497 76.9227197,68.79799 Z" id="Path"></path>
                        <path d="M210.815239,79.8951911 C210.413144,79.8027127 210.351284,79.4019729 210.351284,79.1861899 C210.444075,78.3847102 209.98012,77.9223181 209.485235,77.4907522 C208.99035,77.02836 208.742907,76.4426634 208.588256,75.8261406 C208.433604,75.27127 208.402674,74.7472256 208.402674,74.1923551 C208.402674,73.8224414 208.248022,73.4833539 208.06244,73.1750925 C207.876858,72.8976572 207.536625,73.2059186 207.320113,73.0517879 C207.1036,72.0345253 207.1036,70.9556104 206.515924,70 C205.990109,70.6165228 205.897318,71.325524 205.804527,72.0036991 C205.649875,73.2367448 205.464293,74.4389642 204.691035,75.4562269 C204.258011,76.0419236 204.072429,76.134402 203.422892,75.7644883 C202.371262,75.1479655 201.752655,74.0998767 200.762885,73.3292232 C201.350561,72.8668311 201.412422,72.1270037 201.969167,71.75709 C202.21661,71.5721332 202.340331,71.3563502 202.154749,71.0480888 C201.938237,70.7090012 201.690795,70.8014797 201.443352,70.9556104 C200.886606,71.2946979 200.422652,71.1097411 199.896836,70.8631319 C199.463812,70.647349 199.154508,70.2466091 198.690554,70.0616523 C198.381251,70.431566 198.721484,70.7090012 198.690554,71.1405672 C197.267759,71.1713933 196.649153,72.0653514 196.40171,73.3600493 C196.061477,73.5758323 195.659382,73.5758323 195.257288,73.6374846 C194.917055,73.2059186 194.731473,72.4969174 193.989145,72.6510481 C193.4324,72.7435265 193.370539,73.2675709 193.339609,73.6683107 C193.061236,73.8840937 192.690072,73.6066584 192.597281,73.8532676 C192.318908,74.5314427 191.607511,74.7780518 191.236347,75.3637485 C191.112626,75.2096178 191.050765,75.0863132 190.927044,74.9321825 C190.617741,75.27127 190.277507,75.4562269 190.246577,75.8877928 C190.153786,76.7817509 189.504249,77.3057953 188.823782,77.675709 C187.926803,78.1689273 186.967963,78.5080148 185.978193,78.7237978 C185.421447,78.8471023 184.957492,79.1245376 184.462607,79.3711467 C184.091443,79.5561036 183.905861,80.1109741 183.318185,79.9568434 C183.256325,79.9568434 183.101673,80.1109741 183.070743,80.2034525 C182.977952,80.8508015 183.008882,81.5598027 182.513997,82.0838471 C182.483067,82.1146732 182.513997,82.2071517 182.544927,82.2688039 C182.8233,82.8545006 182.575858,83.2552404 182.019112,83.5326757 C182.668649,84.3958076 182.452136,85.4130703 182.606788,86.3378545 C182.699579,86.892725 182.606788,87.540074 182.575858,88.1257707 C182.544927,88.865598 182.297485,89.6362515 181.709809,90.2219482 C181.214924,90.7151665 181.245854,90.9309494 181.83353,91.270037 C182.606788,91.7324291 183.318185,91.5166461 183.998652,91.1159063 C184.74098,90.6535142 185.514238,90.3144266 186.442148,90.4377312 C187.153545,90.5302096 187.864942,90.4993835 188.328897,89.8212084 C188.421688,89.6979038 188.66913,89.6670777 188.823782,89.5745993 C189.751692,89.0197287 190.834253,89.0505549 191.824023,88.7114673 C193.184957,88.2490752 194.391239,88.4340321 195.535661,89.2663379 C196.030546,89.6362515 196.463571,89.9753391 196.247059,90.6843403 C196.185198,90.9001233 196.308919,91.0234279 196.463571,91.1159063 C196.649153,91.2083847 196.834735,91.1775586 196.927526,90.9926017 C197.298689,90.3760789 197.917296,90.1602959 198.474041,89.7595561 C198.504972,89.8212084 198.535902,89.8520345 198.535902,89.8828607 C198.474041,90.1911221 198.164738,90.3452528 198.041017,90.622688 C198.566832,91.1467324 198.535902,91.3625154 197.948226,91.701603 C197.669853,91.8557337 197.39148,91.9482121 197.113107,92.0715166 C197.020316,92.1023428 196.958456,92.1639951 196.958456,92.2872996 C197.020316,92.4722565 197.144038,92.6263872 197.422411,92.595561 C197.793574,92.3489519 197.979156,91.8557337 198.566832,91.7324291 C198.628693,92.6572133 198.226599,93.7977805 199.27823,94.2601726 C200.113348,94.6300863 201.072188,95.1233046 201.845446,94.1368681 C202.154749,94.4143033 202.18568,94.8766954 202.587774,95 C202.928007,94.8766954 203.14452,94.6300863 203.422892,94.4143033 C203.948708,94.0135635 204.443593,93.6128237 205.15499,93.7053021 C205.464293,93.7361282 205.680806,93.5819975 205.866388,93.3662145 C206.175691,92.9963009 206.454064,92.5647349 206.794297,92.2256473 C207.753137,91.2083847 208.402674,89.8828607 209.670817,89.1430333 C209.856399,89.0505549 209.98012,88.8347719 210.103841,88.649815 C210.815239,87.540074 211.557566,86.4611591 211.835939,85.135635 C211.990591,84.3649815 212.238033,83.594328 212.454545,82.8236745 C211.990591,82.0221948 211.341054,81.3440197 211.186402,80.3884094 C211.124542,80.1109741 210.96989,79.9568434 210.815239,79.8951911 Z" id="Path"></path>
                        <path d="M95.9000658,7.78900616 C96.6610132,7.78900616 96.7561316,7.73364473 96.6927193,7.09698828 C96.5976009,6.26656683 97.1366052,5.90671753 97.8341403,5.57454895 C98.214614,5.38078394 98.6584999,5.2977418 98.9438551,4.96557322 C98.4682631,4.41195891 98.6267938,4.07979033 99.6730963,3.58153746 C99.5145656,3.22168816 99.1023858,2.9172003 99.1975042,2.36358599 C100.687693,2.08677884 102.082763,1.56084526 103.636364,0.841146662 C103.160772,0.868827377 102.875416,0.841146662 102.590061,0.896508092 C101.004754,1.0902731 101.03646,1.03491167 99.609684,0.702743086 C97.992671,0.34289379 96.4073641,-0.0723169371 94.6952326,0.0107252083 C92.951395,0.0660866386 91.2075573,0.121448069 89.4954259,0.204490214 C88.7344785,0.232170929 87.9735312,0.149128784 87.3077023,0.592020226 C87.1174655,0.730423802 86.8955225,0.702743086 86.6735795,0.702743086 C85.0248603,0.702743086 83.4078473,0.730423802 81.7591281,0.868827377 C80.142115,1.00723095 78.5251019,1.25635739 76.9080889,1.45012239 C76.8763827,1.72692955 77.4153871,1.80997169 77.0983257,2.16982099 C76.6227336,2.22518242 76.0520231,2.30822456 75.5130188,2.36358599 C74.6886592,2.47430885 73.8960057,2.557351 73.0716461,2.66807386 C72.817997,2.69575458 72.6594663,2.77879672 72.5643479,3.00024244 C72.4692295,3.27704959 72.7545847,3.36009174 72.9448216,3.49849531 C73.03994,3.58153746 73.1667645,3.63689889 73.2935891,3.63689889 C73.9911241,3.74762175 74.6886592,3.96906747 75.4179004,4.05210962 C76.24226,4.13515176 77.0983257,4.16283248 77.8909792,4.55036249 C78.8104572,4.99325393 78.9689879,5.40846466 78.4299835,6.2112054 C78.303159,6.4049704 78.0495099,6.51569326 78.2397467,6.79250041 C78.5885142,6.82018113 78.9689879,6.84786184 79.2543431,7.09698828 C78.9055756,7.37379543 78.4299835,7.26307257 78.0178037,7.42915686 C77.9543914,7.62292187 77.8275669,7.78900616 77.9543914,8.01045188 C78.3348651,8.01045188 78.7153388,8.01045188 79.0641063,8.01045188 L79.0641063,8.01045188 C79.0958124,8.28725903 78.8738695,8.31493975 78.6519265,8.34262046 C77.7641546,8.39798189 77.2885625,9.06231905 77.2251503,9.58825264 C77.0349134,11.1660534 76.939795,12.7715349 77.9226853,14.3216549 C78.4299835,14.2662935 78.8738695,14.4877392 79.3177554,14.7091849 C80.2689396,15.2074378 80.9981807,15.0690342 81.6640097,14.2662935 C81.8225403,14.1002092 81.981071,13.9341249 82.1078956,13.7403599 C82.7103122,12.854577 83.8517332,12.3840049 84.3907376,11.4428606 C84.5175621,11.2214148 84.9297419,11.0830113 85.2785094,10.9999691 C85.9443383,10.8892463 86.6418734,10.7785234 87.3077023,10.6401198 C87.7832944,10.529397 88.3222987,10.529397 88.7344785,10.2249091 C90.0978425,9.22840335 91.809974,8.84087333 93.4586932,8.39798189 C94.2513466,8.14885546 95.012294,7.78900616 95.9000658,7.78900616 Z" id="Path"></path>
                        <path d="M191.572686,62.1733627 C191.735977,61.9560264 191.817622,61.6765941 191.572686,61.4903059 C190.919525,60.9624892 190.307186,60.3725765 189.449912,60 C189.082508,60.5899127 188.878395,61.2729696 188.225234,61.5213539 C186.796443,62.1112666 185.979991,63.3221401 184.428733,63.7878607 C184.061329,63.9120529 183.734749,64.1604372 183.653103,64.4709176 C183.489813,65.0297823 183.040765,65.0608303 182.469248,64.9676862 C182.265135,64.9366381 182.101845,64.9055901 181.816087,64.843494 C181.652796,65.1539744 181.652796,65.4023587 181.530329,65.619695 C181.24457,66.1475116 181.326216,66.7063763 181.775264,67.1100008 C182.305958,67.5757214 182.469248,68.041442 182.387603,68.6313547 C182.305958,69.2523155 182.959119,69.686988 183.775571,69.5006998 C184.592023,69.3144116 185.32683,69.4696518 185.979991,69.7490841 C186.469862,69.9353724 187.000556,69.9974684 187.490427,69.9974684 C188.63346,70.0285165 188.919218,69.7801322 188.878395,68.9107871 C188.837573,68.4140185 188.878395,68.010394 189.531557,67.7309616 C189.939783,67.5446734 190.184718,67.203145 190.143896,66.8616165 C190.062251,66.1785597 190.388831,65.7438871 191.368574,65.6817911 C191.327751,65.3092146 191.123638,65.0918783 190.878702,64.9055901 C190.143896,64.2535813 190.307186,63.6015725 190.83788,62.9495637 C191.123638,62.6701313 191.368574,62.452795 191.572686,62.1733627 Z" id="Path"></path>
                        <path d="M59.3276616,4.76325258 C59.8264463,4.99507811 60.1866796,4.82120896 60.4360719,4.3575579 C60.546913,4.15471056 60.6023335,3.92288503 60.9071463,4.00981961 C61.2396694,4.12573237 60.9071463,4.41551428 61.0734079,4.61836162 C61.2673797,4.64733981 61.4890617,4.64733981 61.7107438,4.73427439 C62.5143413,5.08201268 63.3179387,5.05303449 64.1492465,4.85018715 C64.6203209,4.73427439 65.0359747,4.7052962 65.5347594,4.79223077 C65.9504132,4.87916534 66.3383568,4.73427439 66.5323286,4.24164514 C65.3962081,3.95186323 64.2877978,3.83595046 63.1239669,4.15471056 C63.4010695,3.66208131 63.7890131,3.54616855 64.1492465,3.51719036 C64.8420029,3.45923397 65.5347594,3.34332121 66.1998055,3.51719036 C66.8371415,3.6910595 67.3913466,3.43025578 67.9455518,3.31434302 C68.6383082,3.19843025 69.3033544,2.82171377 69.9129801,2.44499728 C71.3262032,1.57565155 72.9056879,1.31484782 74.4574623,0.996087721 C75.5381624,0.764262192 76.5911522,0.416523897 77.7272727,0.24265475 C77.5887214,-0.0761053534 77.3947496,0.0108292202 77.2561983,0.0108292202 C75.4827419,0.0108292202 73.7092854,0.0108292202 71.9358289,0.0108292202 C71.3539135,0.0108292202 70.7719981,0.0398074115 70.2177929,0.213676559 C68.9431211,0.590393044 67.6407389,0.532436662 66.3660671,0.677327618 C65.8949927,0.735284001 65.4516286,0.851196765 64.9805542,0.764262192 C64.5371901,0.677327618 64.1769567,0.764262192 63.8444336,1.11200049 C63.5396208,1.4017824 63.1516772,1.66258612 62.7360233,1.28586963 C62.5143413,2.67682281 62.7360233,2.90864834 64.3709285,2.85069196 C63.5673311,3.57514674 62.5697618,3.3722994 61.8215848,3.89390684 C61.5721925,3.6910595 61.405931,3.48821217 61.1842489,3.40127759 C60.8240156,3.25638664 60.4360719,3.08251749 60.0481283,3.25638664 C59.7156053,3.40127759 59.8541565,3.74901589 59.798736,4.00981961 C59.7156053,4.3575579 59.1336898,4.50244886 58.8565873,4.27062333 C58.6903257,4.06777599 58.8842975,3.80697227 58.6903257,3.60412493 C57.4433641,3.22740844 57.4156539,3.22740844 57,4.41551428 C57.4156539,4.67631801 57.859018,4.7052962 58.3300924,4.73427439 C58.6626155,4.7052962 58.9951386,4.61836162 59.3276616,4.76325258 Z" id="Path"></path>
                        <path d="M143.47914,71.9257518 C143.070986,73.0041728 142.41794,73.6204134 141.628842,74.0440788 C140.839744,74.4677442 140.486011,75.4691351 140.649273,76.6245862 C140.812534,77.6259771 141.057427,78.7429132 140.567642,79.628759 C140.023436,80.5916349 140.023436,81.6700559 139.914595,82.7484769 C139.832965,83.7498679 140.676483,85.1749242 141.302319,84.982349 C142.009786,84.7512588 142.581201,84.3275934 142.853304,83.2106574 C143.125407,82.0552063 143.288668,80.8612402 143.533561,79.6672741 C143.914504,77.8955824 144.349869,76.1238907 144.540341,74.275169 C144.567551,74.0825938 144.621971,73.9285337 144.758023,73.8515036 C144.894074,73.7744735 145.030125,73.6974435 145.030125,73.4663532 C145.057336,72.2723871 145.302228,71.039906 144.567551,70 C144.132187,70.5392105 143.751243,71.1939661 143.47914,71.9257518 Z" id="Path"></path>
                        <path d="M42.995086,7.68211921 C43.6953317,7.58278146 44.0874693,6.9205298 44.7036855,6.75496689 C44.7316953,6.78807947 44.7597052,6.82119205 44.8157248,6.88741722 C44.5916462,7.61589404 44.0874693,8.21192053 43.8914005,8.97350993 C44.3675676,9.2384106 44.9277641,9.33774834 45.0117936,9.96688742 C45.2918919,10.0331126 45.4599509,10 45.6280098,9.86754967 C46.5243243,9.2384106 47.560688,9.37086093 48.5410319,9.17218543 C48.9611794,9.07284768 49.4933661,9.10596026 49.8574939,9.30463576 C50.6977887,9.76821192 51.2579853,9.37086093 51.8181818,8.67549669 C51.6501229,8.31125828 51.4260442,8.04635762 51.3420147,7.68211921 C51.7621622,7.1192053 51.6781327,6.49006623 51.5660934,5.86092715 C50.809828,5.89403974 50.3896806,6.42384106 49.9695332,7.1192053 C49.6894349,6.58940397 49.353317,6.45695364 48.9051597,6.39072848 C48.2609337,6.29139073 47.4766585,6.35761589 47.22457,5.29801325 C47.1685504,5.06622517 46.9444717,5 46.7203931,5 C45.9081081,5 45.0958231,5.03311258 44.2835381,5.03311258 C44.0874693,5.03311258 43.8353808,5.13245033 43.7793612,5.33112583 C43.6673219,6.09271523 43.1071253,6.12582781 42.6589681,6.35761589 C42.2668305,6.55629139 41.8186732,6.65562914 41.4545455,6.9205298 C42.014742,7.91390728 42.0427518,7.84768212 42.995086,7.68211921 Z" id="Path"></path>
                        <path d="M185.977584,68.969697 C185.764633,68.2121212 186.226027,67.6666667 186.545455,67.0909091 C186.226027,66.8787879 185.729141,67.1818182 185.622665,66.8787879 C185.303238,66.1212121 184.451432,65.7878788 183.919054,65.3030303 C183.812578,64.969697 184.238481,64.9393939 184.167497,64.6363636 C183.493151,64.1818182 182.854296,63.6060606 182.037983,63.2424242 C181.328144,62.9393939 180.760274,62.5151515 180.369863,61.9090909 C180.192403,61.6363636 179.979452,61.3939394 179.660025,61.2727273 C178.63076,60.8484848 177.636986,60.4242424 176.643213,60 C176.39477,60.1515152 176.181818,60.2424242 176.181818,60.5454545 C177.1401,60.8787879 177.920922,61.3939394 178.275841,62.3030303 C178.311333,62.4242424 178.488792,62.5757576 178.666252,62.6060606 C179.340598,62.7878788 179.624533,63.2727273 179.94396,63.7272727 C180.476339,64.5454545 181.186177,65.3333333 181.328144,66.2424242 C181.683064,68.2121212 183.315691,69.0909091 185.090286,70 C185.587173,69.6363636 186.08406,69.3636364 185.977584,68.969697 Z" id="Path"></path>
                        <path d="M196.361505,63.513263 C196.578248,63.513263 196.767898,63.7088863 196.903363,63.395889 C196.957549,62.6133959 196.605341,61.8700274 196.767898,61.1266589 C196.903363,60.5006643 196.794991,60.1876671 196.442783,59.8746698 C196.198947,59.6399219 195.955111,59.3269246 196.009297,58.8574287 C196.117669,57.6445643 195.657089,57.0968191 194.952674,56.7446972 C194.925581,56.7055725 194.898488,56.6664479 194.844302,56.5881986 C195.033952,55.8448301 194.790116,55.4535835 194.302444,55.1797109 C194.112794,55.1014616 193.950236,55.0623369 193.760586,55.0232123 C193.164542,54.9058383 193.110356,54.7884643 193.110356,53.8885972 C193.110356,53.5364753 193.05617,53.1843533 193.218728,52.8713561 C193.598028,52.0106136 193.245821,51.2281204 193.083263,50.4456273 C193.029077,50.1717547 192.812334,49.9370067 192.568498,50.015256 C192.324662,50.0935054 192.135012,50.250004 192.135012,50.7194999 C192.135012,51.4237437 192.135012,52.1671122 191.864083,52.7539821 C191.674432,53.1843533 191.728618,53.5364753 191.755711,53.9668465 C191.809897,54.6319657 192.135012,54.8667136 192.460127,55.2579602 C192.053733,56.196952 192.649777,56.5490739 192.947799,57.1750684 C193.164542,56.7446972 192.974892,56.2752013 193.218728,55.962204 C194.166979,56.079578 194.465001,57.3315671 195.115231,58.1140602 C194.54628,58.7009301 194.139887,58.0358109 193.625121,57.8401876 C193.570936,58.5835561 193.570936,59.2095506 193.977329,59.6399219 C194.112794,59.7964205 194.194072,59.9137945 194.275351,60.1094178 C194.519187,60.8136616 194.681745,60.8527863 195.088138,60.5789137 C195.494532,60.2659164 195.440346,59.9137945 195.169417,59.4834232 C194.817209,58.8965534 195.088138,58.7009301 195.440346,58.5444315 C195.819647,59.2095506 195.765461,60.0702931 196.03639,60.6962876 C195.657089,61.3614068 195.223603,61.5179055 194.681745,61.3222822 C194.410816,61.9874013 193.868958,62.4568972 194.031515,63.630637 C194.302444,62.7307698 194.708838,62.5742712 195.223603,62.6133959 C195.223603,63.7871356 195.548718,64.6087534 196.361505,65 C196.361505,64.4913794 196.361505,64.0218836 196.361505,63.513263 Z" id="Path"></path>
                        <path d="M103.647657,25.0177632 C103.647657,25.0177632 103.647657,25.0756579 103.647657,25.0177632 C103.706119,25.0756579 103.706119,25.0756579 103.647657,25.0177632 C103.706119,25.0756579 103.706119,25.0177632 103.647657,25.0177632 C103.706119,25.0177632 103.706119,25.0177632 103.647657,25.0177632 Z" id="Path"></path>
                        <path d="M108.689557,22.5954837 C108.97287,22.2748816 108.752515,21.8741288 108.374765,21.753903 C108.18589,21.6737525 107.965535,21.8340536 107.839618,21.4733761 C107.335951,20.271118 106.769325,19.1089351 106.013824,18.1471286 C106.13974,17.6261501 106.737846,17.4257737 106.517491,16.8246447 C106.234178,16.5441178 105.856428,16.9047952 105.573115,16.423892 C105.856428,16.0231393 106.234178,15.6223865 106.297137,15.0212575 C105.824948,14.8609564 105.793469,15.6624618 105.415718,15.5823113 C104.723176,15.3819349 104.408384,16.1032898 103.999154,16.5441178 C103.432528,17.1051716 103.715841,17.9868275 103.652882,18.7081824 C103.621403,19.1890857 104.408384,19.2291609 104.502821,19.8703653 C105.384239,19.7100642 105.415718,20.5115696 105.510156,21.2329245 C105.132406,21.3932256 104.691696,21.313075 104.5343,21.8340536 C104.56578,22.0745052 104.912051,22.0344299 104.786134,22.3951074 C104.56578,22.6756343 104.093591,22.5153332 103.999154,23.0363117 C104.125071,23.4370644 104.597259,23.076387 104.660217,23.5572902 C104.345425,24.0381935 104.030633,24.4790215 103.652882,25 C105.195364,24.1984946 106.800804,24.1984946 108.406244,24.1984946 C108.406244,23.5973655 108.248848,23.076387 108.689557,22.5954837 Z" id="Path"></path>
                        <path d="M187.2293,68.0836402 C187.547144,68.1963672 187.951673,68.572124 188.182832,68.459397 C189.107469,67.9709131 190.003211,68.3090943 190.927847,68.3090943 C192.343697,68.3090943 193.788442,68.6096997 195.175397,68.0836402 C195.233187,68.0460645 195.290977,68.1212159 195.262082,68.1963672 C194.25076,69.3236377 194.25076,69.3236377 194.221865,70 C195.088712,69.0981836 195.83998,68.0460645 196.909091,67.5575806 C196.533457,67.1066724 196.186718,67.1818238 195.811085,67.3321265 C195.146502,67.5575806 194.48192,67.8581861 193.817337,67.3321265 C193.672862,67.2193995 193.557283,67.2193995 193.412808,67.3321265 C192.459277,68.0460645 191.505745,67.632732 190.552214,67.3697022 C190.23437,67.2945508 189.916526,67.0690967 189.627577,67.2193995 C188.70294,67.7078833 187.922778,67.031521 187.113721,66.806067 C186.998141,66.3551588 187.46046,66.3927344 187.431565,65.9418262 C186.738087,65.6036451 185.81345,66.2424317 185.264447,65.1903126 C184.744339,66.092129 184.62876,66.092129 183.935282,66.092129 C183.559649,66.092129 183.386279,65.7163721 183.15512,65.4533424 C182.519432,64.7018287 181.825955,64.8897071 181.363636,65.9794019 C181.825955,66.092129 182.346063,65.9794019 182.663907,66.4303101 C183.15512,67.1442481 183.819703,67.3321265 184.51318,67.4824292 C185.437817,67.632732 186.362454,67.7078833 187.2293,68.0836402 Z" id="Path"></path>
                        <path d="M194.188799,66.4883721 C194.514902,66.7209302 194.841005,66.9534884 195.167109,67.0930233 C196.243249,67.5116279 197.123728,66.4418605 196.862846,65 C196.047587,66.0697674 195.101888,65.9302326 194.123578,65.6046512 C194.025747,65.5581395 193.927916,65.5581395 193.830085,65.5116279 C193.014827,65.372093 192.558282,65.7906977 192.525672,66.9534884 C192.493062,67.9767442 192.264789,68.8604651 192.003907,69.744186 C191.906076,70.1627907 191.612583,70.627907 191.775635,71.0465116 C192.232179,72.3023256 192.101738,73.6511628 192.134348,75 C193.047437,74.8139535 193.177879,74.627907 193.243099,73.5116279 C193.27571,73.1395349 193.243099,72.7674419 193.145268,72.4418605 C193.047437,72.0232558 192.982217,71.5581395 193.145268,71.1395349 C193.503982,71.1395349 193.830085,71.5116279 193.764864,71.6976744 C193.503982,72.6744186 194.31924,73.2790698 194.058357,74.1162791 C194.449681,74.3953488 194.808395,74.7209302 195.167109,74.2093023 C195.493212,73.6976744 195.395381,73.0930233 195.167109,72.6744186 C194.775785,71.7906977 194.645343,70.7209302 194.254019,69.8372093 C194.547512,69.372093 195.134498,69.3255814 195.232329,68.4418605 C194.482292,68.1627907 194.482292,68.1162791 193.960526,68.5813953 C193.471372,69.0465116 193.27571,68.7674419 193.080048,68.1627907 C192.916996,67.6046512 192.851775,67.0930233 193.145268,66.627907 C193.438761,66.1162791 193.797475,66.255814 194.188799,66.4883721 Z" id="Path"></path>
                        <path d="M43.0750413,7.59718818 C43.7157025,7.71798763 43.7533884,9.10718131 44.4694215,8.86558241 C44.8839669,8.74478296 45.2608264,9.16758104 45.6,9.52997939 C46.0899174,10.0735769 46.5421488,10.1339766 47.0697521,9.77157829 C48.1626446,9.04678159 49.2932231,8.74478296 50.4614876,8.86558241 C50.9890909,8.92598214 51.4790083,8.68438324 51.8181818,7.59718818 C51.1021488,7.65758791 51.4790083,6.4495934 50.9890909,6.14759478 C50.4614876,6.38919368 50.0469421,6.93279121 49.6323967,7.35558928 C49.0671074,7.89918681 48.5395041,8.01998626 47.9742149,7.35558928 C47.5596694,6.87239148 47.0320661,6.75159203 46.5044628,6.57039286 C46.5044628,6.02679533 47.107438,5.66439698 46.6928926,5 C44.9216529,5.12079945 43.301157,6.57039286 41.4545455,6.87239148 C41.9444628,7.89918681 42.547438,7.53678846 43.0750413,7.59718818 Z" id="Path"></path>
                        <path d="M97.1525811,10.6512981 C96.1630882,10.6512981 95.0954774,12.2795434 94.2101416,10 C93.8455916,10.4559087 93.5331201,10.7164279 93.2727273,11.367726 C93.3508451,11.7585049 93.5070809,11.8887645 93.6372773,12.0190242 C93.9497487,12.409803 94.2622202,12.5400626 94.5226131,13.45188 C94.8611238,14.6893464 95.4079488,15.4057743 96.1370489,14.7544762 C96.6317953,14.2985675 97.1786204,13.9077887 97.6994061,13.5821396 C98.142074,13.3216204 98.3764276,12.7354521 98.4545455,11.6933751 C97.8816811,10.3907789 97.8816811,10.6512981 97.1525811,10.6512981 Z" id="Path"></path>
                        <path d="M51.8181818,48.6949903 C50.5369347,48.5388639 49.668993,47.5500637 48.9250431,46.353095 C48.8423819,46.2490108 48.7183903,46.1969687 48.5943986,46.1449266 C46.8585154,45.3642948 45.0813015,45 43.2627572,45 C42.5601378,45 42.1881628,45.6245054 41.6921961,46.1449266 C41.3615517,46.5092214 41.4028823,46.9255583 41.6508656,47.4980216 C42.1881628,47.1857689 42.4774767,46.6133056 42.8081211,46.1969687 C43.097435,45.8326739 43.46941,45.4163369 43.8827155,45.7806317 C44.5026738,46.3010529 45.2052932,46.353095 45.8665821,46.6653477 C46.7758543,47.0296425 47.5198042,47.5500637 47.4784737,49.007243 C47.4784737,49.5797062 47.6851264,50.0480853 48.2224236,49.9960432 C49.2143569,49.8919589 50.2062902,49.7878747 51.156893,49.6317484 C51.4048763,49.5276641 51.6528596,49.2674535 51.8181818,48.6949903 Z" id="Path"></path>
                        <path d="M98.0670804,15.3079107 C96.8103082,14.6973081 96.0190072,14.9791247 95.2277062,16.2942687 C94.8087822,16.6230547 94.4829523,16.0124521 94.1105754,16.3412381 C93.6916513,17.0457796 93.8778398,17.6563821 94.5294995,18.1730459 C93.7381985,18.736679 93.7381985,18.736679 93.2727273,19.4881899 C94.9018764,20.8972727 96.0655543,18.9245567 97.4154208,19.1594039 C97.6481564,18.5957707 97.9739862,18.1260764 97.8343448,17.6094127 C97.6947035,16.9518407 98.2067218,16.6230547 98.3929102,16.106391 C98.5325516,15.777605 98.4394574,15.4957884 98.0670804,15.3079107 Z" id="Path"></path>
                        <path d="M47.0041056,49.1734493 C47.572434,49.3102837 48.1741935,48.7629461 48.6756598,49.8576213 C48.7759531,50.1312901 49.0768328,49.9944557 49.2105572,49.5839525 C49.6451613,48.3524429 50.2803519,48.4208601 50.9155425,48.3524429 C51.2164223,48.2840257 51.5173021,48.5576945 51.8181818,48.0103569 C51.483871,46.4367612 50.8821114,45.4789204 50.0797654,45.4789204 C49.4445748,45.4789204 48.8428152,45.4105032 48.1073314,45 C48.0739003,46.0946752 48.2076246,47.052516 47.940176,47.7366881 C47.4721408,48.0787741 46.8703812,47.394602 46.6363636,48.6945289 C46.7366569,49.1734493 46.8703812,49.1734493 47.0041056,49.1734493 Z" id="Path"></path>
                        <path d="M47.1219541,6.42691677 C47.0273246,6.84659817 46.554177,6.93053445 46.6488065,7.68596097 C47.547787,9.02894146 48.2101936,10.9594759 49.724266,9.44862286 C50.8125055,8.35745121 51.9480598,7.76989725 51.8061155,5 C50.717876,5.08393628 49.5823217,5.25180884 48.4940822,5.33574512 C48.1628789,6.17510793 48.4467674,6.93053445 48.1155641,7.43415213 C47.6897313,7.43415213 47.5951017,6.42691677 47.1219541,6.42691677 Z" id="Path"></path>
                        <path d="M191.896997,45 C191.362688,46.3541667 191.333004,47.9166667 191.778262,50 C192.104784,48.3333333 192.134468,47.2916667 191.896997,45 Z" id="Path"></path>
                        <path d="M185.73315,45.0085807 C184.451826,45.2097158 182.973375,45.0085807 182.086304,46.2153916 C181.297797,47.321635 181.002107,48.4278783 181.987741,49.4335541 C182.973375,50.4392298 183.959009,49.9363919 184.84608,49.2324189 C185.930277,48.5284459 186.324531,47.4222025 186.521658,46.3159592 C186.620221,45.7125537 186.423094,44.9080131 185.73315,45.0085807 Z" id="Path"></path>
                        <path d="M62.1818182,5.11017582 C59.7364658,4.65714446 57.8733401,4.62229589 57,5.05790297 C58.7466803,5.1276001 60.3186925,5.59805574 62.1818182,5.11017582 Z" id="Path"></path>
                        <path d="M61.138715,4.8772571 C62.336764,4.44700849 62.2278505,3.37138697 62.1189369,2.40332761 C62.0100234,1.54283039 61.9011098,0.682333179 61.0298014,0.0369602683 C59.5050117,-0.178164035 58.4158762,0.574771027 57,1.54283039 C57.6534813,2.51088976 57.980222,3.26382482 58.5247897,4.01675988 C59.178271,4.8772571 60.0495794,5.19994355 61.138715,4.8772571 Z" id="Path"></path>
                        <path d="M51.8181818,4.86652728 C50.3376623,4.64633785 49.6714286,4.70924912 46.6363636,5.30690614 C48.8571429,5.40127304 50.4116883,5.18108361 51.8181818,4.86652728 Z" id="Path"></path>
                    </g>
                </g>
            </g>
        </g>
    </g>
</svg>