<?xml version="1.0" encoding="UTF-8"?>
<svg width="161px" height="147px" viewBox="0 0 161 147" version="1.1" xmlns="http://www.w3.org/2000/svg" xmlns:xlink="http://www.w3.org/1999/xlink">
    <title>Sketch</title>
    <g id="Page-1" stroke="none" stroke-width="1" fill="none" fill-rule="evenodd">
        <g id="03---Apps-content-2" transform="translate(-882, -441)">
            <g id="Sketch" transform="translate(885, 444)">
                <path d="M0.225180585,49.1173897 L31.0792171,6.40372156 C31.1581381,6.29446494 31.2778253,6.22169713 31.4111453,6.20191481 L73.1358119,0.0107119291 C73.1836859,0.00360828009 73.2323376,0.00349310111 73.2802446,0.0103699963 L116.447218,6.20684257 C116.564219,6.22363763 116.671487,6.28133957 116.749986,6.36970888 L154.710386,49.103096 C154.876337,49.2899127 154.878888,49.5705626 154.716362,49.7603656 L76.1209507,141.54626 C75.9413427,141.756011 75.6257046,141.780447 75.4159534,141.600839 C75.3935339,141.581641 75.3728582,141.560496 75.3541687,141.537651 L0.243502645,49.7267683 C0.0999425344,49.5512888 0.0924224802,49.3011772 0.225180585,49.1173897 Z" id="Path" stroke="#BABABA" stroke-width="4.4"></path>
                <path d="M7.35436514,10.7206366 L71.4958663,141.158734 C71.6177206,141.406536 71.9173867,141.508638 72.1651894,141.386783 C72.2542082,141.343009 72.3281943,141.273745 72.3777356,141.187802 L147.567838,10.7497051 C147.705746,10.5104649 147.6236,10.2047255 147.38436,10.0668172 C147.308421,10.0230424 147.222308,10 147.134655,10 L7.80305154,10 C7.52690916,10 7.30305154,10.2238576 7.30305154,10.5 C7.30305154,10.5765027 7.32060655,10.6519852 7.35436514,10.7206366 Z" id="Path"></path>
                <path d="M75.6351045,138.562564 L117.866453,49.7807521 C117.948225,49.6088451 118.12052,49.4982864 118.310865,49.4955799 L152.062388,49.0156782 C152.338503,49.0117522 152.56552,49.2324046 152.569446,49.5085191 C152.57117,49.6297216 152.528805,49.7474233 152.450234,49.8397252 L76.4673621,139.101439 C76.288368,139.311715 75.9728027,139.337073 75.7625274,139.158079 C75.5901205,139.01132 75.5378482,138.767024 75.6351045,138.562564 Z" id="Path" stroke="#BABABA" stroke-width="2"></path>
                <path d="M42.6528413,49.5 L2.77136155,49.5 C2.49521917,49.5 2.27136155,49.7238576 2.27136155,50 C2.27136155,50.1155355 2.31137282,50.2275056 2.38459375,50.3168764 L75.5934833,139.672975 C75.7684894,139.886581 76.0835216,139.917873 76.2971276,139.742867 C76.4625155,139.607365 76.523444,139.381698 76.4487272,139.18137 L43.1213173,49.8252711 C43.0483688,49.6296845 42.861589,49.5 42.6528413,49.5 Z" id="Path" stroke="#BABABA" stroke-width="2"></path>
                <path d="M42,49.5 L119,49.5 C105.67395,49.5 92.3478997,49.5 79.0218495,49.5 C66.681233,49.5 54.3406165,49.5 42,49.5 L42,49.5 Z" id="Path" stroke="#BABABA" stroke-width="2"></path>
                <path d="M74,3 L118,49 L74,3 Z" id="Path" stroke="#BABABA" stroke-width="2" stroke-linejoin="round"></path>
                <path d="M74,3 L43,49 L74,3 Z" id="Path" stroke="#BABABA" stroke-width="2" stroke-linejoin="round"></path>
            </g>
        </g>
    </g>
</svg>